<?xml version="1.0" encoding="UTF-8"?>
<svg version="1.1" xmlns="http://www.w3.org/2000/svg" width="1240" height="1748">
<path d="M0 0 C409.2 0 818.4 0 1240 0 C1240 576.84 1240 1153.68 1240 1748 C830.8 1748 421.6 1748 0 1748 C0 1171.16 0 594.32 0 0 Z " fill="#FEFEFE" transform="translate(0,0)"/>
<path d="M0 0 C57.09 0 114.18 0 173 0 C173 46.2 173 92.4 173 140 C165.97419487 140 160.64350229 139.7715188 154.0625 138.125 C152.49002049 137.75076254 150.91710343 137.37835868 149.34375 137.0078125 C148.59609375 136.83024414 147.8484375 136.65267578 147.078125 136.46972656 C144.42202265 135.86935756 141.75168711 135.4250152 139.0625 135 C134.35114734 134.18471233 130.06594756 132.71212957 125.609375 131 C123.29684719 130.1137618 120.98214453 129.31953912 118.625 128.5625 C108.31703011 125.13259144 98.62633701 120.93771179 88.96875 116.00390625 C83.39276761 113.16261523 77.7020601 110.5776436 72 108 C72 107.34 72 106.68 72 106 C71.44828125 105.89558594 70.8965625 105.79117188 70.328125 105.68359375 C67.50411491 104.85439616 65.27445084 103.5720035 62.75 102.0625 C61.85796875 101.53785156 60.9659375 101.01320313 60.046875 100.47265625 C59.03367187 99.74369141 59.03367187 99.74369141 58 99 C58 98.34 58 97.68 58 97 C57.41677979 96.88390381 56.83355957 96.76780762 56.23266602 96.64819336 C53.84857689 95.95603845 52.3065856 95.04603339 50.27734375 93.62890625 C49.23018188 92.89837036 49.23018188 92.89837036 48.16186523 92.15307617 C47.42782471 91.62818604 46.69378418 91.1032959 45.9375 90.5625 C45.17961182 90.02407471 44.42172363 89.48564941 43.64086914 88.9309082 C37.3154582 84.36685093 31.64559377 79.38387751 26 74 C21.41778249 69.89843468 16.74348053 65.91337144 12 62 C13.90304269 68.64395605 16.02710786 75.21066314 18.24243164 81.75610352 C19.85520125 86.52976647 21.42567107 91.31452122 22.95413208 96.11573792 C23.90652927 99.10015591 24.87142745 102.0804693 25.83740234 105.06051636 C26.31822667 106.55384421 26.79371423 108.04890163 27.26367188 109.54568481 C27.93384298 111.67719796 28.62312203 113.80169118 29.31640625 115.92578125 C29.71287354 117.16755127 30.10934082 118.40932129 30.51782227 119.6887207 C32.16107538 123.35985264 34.02811365 125.32991189 37 128 C37.92052117 129.00637834 38.83162516 130.02158557 39.7265625 131.05078125 C45.92744501 138.05727764 52.14611929 143.81572366 60 149 C61.10408203 149.79470703 61.10408203 149.79470703 62.23046875 150.60546875 C69.64407875 155.85846381 77.9294947 159.55811874 86.4375 162.6875 C90 164 90 164 93.0625 165.625 C96.00770712 167.17904931 96.00770712 167.17904931 99.5625 167.5 C103 168 103 168 105.3203125 169.41796875 C122.57515238 179.60486401 153.29306702 181.27861128 173 183 C173 185.64 173 188.28 173 191 C169.66462874 190.68234559 166.33252704 190.34582828 163 190 C162.35160156 189.93554688 161.70320312 189.87109375 161.03515625 189.8046875 C153.01729541 188.99842216 145.35170113 188.06728411 137.61328125 185.71875 C134.71358031 184.92122388 131.84792774 184.44874381 128.875 184 C124.52109125 183.31812982 120.55435668 182.34206841 116.4140625 180.8515625 C113.44841562 179.80542817 110.44857725 178.90678418 107.4375 178 C100.31913002 175.81482596 93.61900522 173.38603583 86.99609375 169.96484375 C85.04553887 169.02201194 83.10575082 168.2786493 81.0625 167.5625 C65.79567791 162.00822815 49.90791297 150.91307901 39 139 C39 142.35401449 39.75829964 144.52636155 40.87109375 147.6875 C41.27602051 148.84741455 41.68094727 150.0073291 42.09814453 151.20239258 C42.31617737 151.82046783 42.53421021 152.43854309 42.7588501 153.0753479 C43.91816837 156.36317618 45.06169049 159.65650089 46.20703125 162.94921875 C46.44194275 163.62337326 46.67685425 164.29752777 46.91888428 164.99211121 C49.21082027 171.58011922 51.4275069 178.19241887 53.625 184.8125 C53.99061035 185.91198975 54.3562207 187.01147949 54.73291016 188.14428711 C56.56216119 193.65113724 58.38293733 199.16073511 60.19921875 204.671875 C60.55483887 205.74719482 60.91045898 206.82251465 61.27685547 207.93041992 C61.94136997 209.9400985 62.60337682 211.95060899 63.26220703 213.9621582 C64.69262431 218.28437311 66.18859419 222.54174908 67.91796875 226.75390625 C70.32879099 232.67602974 72.31944512 238.73285119 74.31784058 244.80319214 C75.017603 246.92846261 75.72134267 249.05238161 76.42602539 251.17602539 C77.95399195 255.78292489 79.4771568 260.39140489 81 265 C82.88211847 270.69491146 84.76680979 276.38895409 86.65649414 282.08135986 C87.41997818 284.38464012 88.17979185 286.68910899 88.93945312 288.99365234 C91.12777904 295.60371884 93.39840939 302.13471692 96.05493164 308.57446289 C98.36572749 314.5051673 100.11462779 320.64674972 102 326.72265625 C103.77769419 332.38211237 105.71455662 337.88640954 107.96826172 343.37207031 C110.06313039 348.70788819 111.77779465 354.17946173 113.5625 359.625 C114.44945431 362.31198437 115.33956779 364.99791563 116.23046875 367.68359375 C116.45833069 368.3709108 116.68619263 369.05822784 116.92095947 369.76637268 C119.3540886 377.09117874 121.85868409 384.39093013 124.375 391.6875 C124.60040466 392.34155823 124.82580933 392.99561646 125.05804443 393.66949463 C126.22080319 397.04340457 127.38436317 400.41703741 128.54833984 403.79052734 C131.10130747 411.19142331 133.64566597 418.5952739 136.1875 426 C136.44137482 426.73914642 136.69524963 427.47829285 136.95681763 428.23983765 C140.12806479 437.47626165 143.25088448 446.72653172 146.3125 456 C149.64897482 466.08837922 153.26477189 476.05347629 157 486 C160.82991271 496.23278439 164.57297848 506.47397406 167.95922852 516.86352539 C168.18408936 517.5518042 168.4089502 518.24008301 168.640625 518.94921875 C168.83172852 519.54049561 169.02283203 520.13177246 169.21972656 520.7409668 C170.02832436 523.20801523 170.02832436 523.20801523 171.52569562 526.27439499 C173.77538022 532.3202872 173.40769095 538.49763563 173.36914349 544.86871338 C173.37136442 546.28501802 173.37490232 547.70132109 173.37963298 549.11761957 C173.38882714 553.01282252 173.37932571 556.90779005 173.36679858 560.80297543 C173.35648655 565.03926352 173.36361016 569.27552798 173.36853105 573.51182079 C173.37475129 580.93736026 173.36982262 588.3628276 173.35761642 595.78835869 C173.33951667 606.8298505 173.33860852 617.87129681 173.34124239 628.91280075 C173.34518501 647.48603988 173.33515638 666.059247 173.31719017 684.63247681 C173.29944461 703.02471068 173.28789344 721.41693122 173.28463173 739.80917358 C173.28442551 740.95235976 173.28421929 742.09554594 173.28400682 743.27337412 C173.28299184 749.07893949 173.28208768 754.88450487 173.2812262 760.69007027 C173.27492344 801.82057025 173.25470713 842.95105281 173.22631836 884.08154297 C173.19876932 924.04150299 173.17756711 964.0014582 173.16479492 1003.96142578 C173.163983 1006.473846 173.16317088 1008.98626622 173.16235858 1011.49868643 C173.15579235 1031.91285554 173.14966459 1052.32702478 173.14364313 1072.74119405 C173.11547651 1167.16081254 173.05526642 1261.58038558 173 1356 C-33.25 1356 -239.5 1356 -452 1356 C-452 1134 -452 1134 -448 1098 C-447.21864918 1086.48234682 -447.21864918 1086.48234682 -446.49609375 1074.9609375 C-446.00216544 1067.39015468 -445.0794794 1059.90084563 -444.10302734 1052.37988281 C-443.12318278 1044.61754188 -442.53704226 1036.8707327 -442.0625 1029.0625 C-441.40054501 1018.27452074 -440.3261497 1007.59633858 -439 996.875 C-437.60075172 985.55254048 -436.48281679 974.26761513 -435.71435547 962.88110352 C-435.00873762 952.59630428 -433.95165584 942.36276692 -432.85546875 932.11328125 C-432.20159819 925.98856473 -431.58684228 919.86082334 -430.98828125 913.73046875 C-430.90128967 912.84345779 -430.8142981 911.95644684 -430.72467041 911.04255676 C-430.20358313 905.73029046 -430.20358313 905.73029046 -429.68902588 900.41738892 C-428.83565086 891.5563153 -427.86773041 882.77640885 -426.43969727 873.98583984 C-425.69789708 868.9485182 -425.35538389 863.88923968 -425 858.8125 C-423.1252918 833.92984021 -423.1252918 833.92984021 -420.9375 821.9375 C-420.15227913 817.51251171 -419.81736399 813.19945432 -419.62109375 808.7109375 C-419.07080983 798.09773997 -417.79369905 787.57397709 -416.52587891 777.02661133 C-416.12697924 773.70398602 -415.73672772 770.38042958 -415.34765625 767.05664062 C-414.06386243 756.19423532 -412.6506963 745.37001598 -410.97792053 734.56059265 C-410.10707904 728.88305877 -409.46850647 723.2306619 -409.0625 717.5 C-408.2698342 707.68986806 -406.91142547 698.00079093 -405.46337891 688.26831055 C-404.43636868 681.29203857 -403.56876247 674.33529501 -402.9375 667.3125 C-402.33240006 660.5902179 -401.36401705 654.04166895 -400.10302734 647.41333008 C-399.12566914 642.12391665 -398.53798028 636.85605191 -398.0625 631.5 C-397.2682208 622.61922693 -395.92579427 613.8790592 -394.46337891 605.0859375 C-393.46923548 599.06713837 -392.59057934 593.06512561 -391.9375 587 C-391.26930655 580.82825521 -390.30437784 574.75941678 -389.17553711 568.65869141 C-388.12575653 562.91673962 -387.29319407 557.15747305 -386.5 551.375 C-385.50532648 544.16151097 -384.25767902 537.09004982 -382.75390625 529.96484375 C-381.59192546 524.15796976 -380.85807245 518.27586251 -380.08984375 512.40625 C-379.56158017 508.4742881 -378.96879278 504.645623 -377.96484375 500.8046875 C-377.04962555 497.19568942 -376.53243556 493.75852261 -376.125 490.0625 C-375.31946233 483.6373781 -374.01794938 477.48232884 -372.46142578 471.2019043 C-371.41744719 466.93891063 -370.59763428 462.72919259 -370 458.375 C-369.16734814 452.42005236 -367.676551 446.76578685 -366 440.99609375 C-365.14244407 437.83364933 -364.60010152 434.67410969 -364.09375 431.4375 C-362.96230546 424.37425857 -361.26082289 417.49159592 -359.5 410.5625 C-359.19191406 409.32306641 -358.88382812 408.08363281 -358.56640625 406.80664062 C-357.28642517 401.72242392 -355.99980362 396.8511933 -354 392 C-353.23213712 389.12151927 -352.55753494 386.22877791 -351.87890625 383.328125 C-349.89431545 375.81314118 -347.14689686 368.65221149 -344.125 361.5 C-343.79886719 360.70980469 -343.47273438 359.91960937 -343.13671875 359.10546875 C-337.74264642 346.28142908 -330.65181201 336.29985202 -320.625 326.65234375 C-318.55483648 324.56061602 -316.63288765 322.45228177 -314.71484375 320.2265625 C-310.85213282 315.76882482 -306.74322868 311.59565049 -302.5625 307.4375 C-301.85029297 306.72142578 -301.13808594 306.00535156 -300.40429688 305.26757812 C-296.39626695 301.2668289 -292.29139866 297.4502312 -288.00268555 293.75317383 C-284.45053272 290.64357862 -281.04773189 287.37551897 -277.625 284.125 C-271.49178881 278.32658124 -265.3091214 272.60688875 -259 267 C-253.59482439 262.15731421 -248.21643497 257.28778062 -242.875 252.375 C-238.95749342 248.77346119 -235.00358347 245.22211789 -230.984375 241.734375 C-226.94626738 238.20500535 -222.98025811 234.59429369 -219 231 C-213.72424814 226.2358362 -208.43673425 221.49058619 -203.07421875 216.82421875 C-199.81448051 213.95736798 -196.60589216 211.03411516 -193.39453125 208.11328125 C-191 206 -191 206 -188.3828125 204.24609375 C-185.09346847 201.14548258 -184.29895605 198.01566076 -183.0625 193.75 C-182.55451949 192.12163386 -182.04405221 190.49404164 -181.53125 188.8671875 C-181.27730469 188.04959961 -181.02335937 187.23201172 -180.76171875 186.38964844 C-173.60494113 163.93755248 -163.66975684 143.50880932 -149 125 C-147.86884766 123.56140625 -147.86884766 123.56140625 -146.71484375 122.09375 C-136.31895179 109.11225884 -124.40679531 98.39793094 -110 90 C-109.40509766 89.649375 -108.81019531 89.29875 -108.19726562 88.9375 C-92.14714015 79.58980306 -75.42432323 73.93598298 -57.00390625 71.60546875 C-50.0960241 70.63489314 -45.99905777 68.60856751 -41.1875 63.5 C-40.69830078 63.00113281 -40.20910156 62.50226563 -39.70507812 61.98828125 C-37.02562823 59.2358874 -37.02562823 59.2358874 -35 56 C-34.34 56 -33.68 56 -33 56 C-32.60276733 55.11163452 -32.60276733 55.11163452 -32.19750977 54.20532227 C-30.96039638 51.92706637 -29.70402423 50.50187465 -27.83984375 48.71484375 C-27.2152124 48.10688965 -26.59058105 47.49893555 -25.94702148 46.87255859 C-24.95230835 45.91470459 -24.95230835 45.91470459 -23.9375 44.9375 C-18.54800024 39.66671169 -13.5995362 34.36994324 -9.02734375 28.3671875 C-7 26 -7 26 -1 21 C-0.67 14.07 -0.34 7.14 0 0 Z " fill="#F0EDE6" transform="translate(760,267)"/>
<path d="M0 0 C57.09 0 114.18 0 173 0 C173 46.2 173 92.4 173 140 C165.97419487 140 160.64350229 139.7715188 154.0625 138.125 C152.49002049 137.75076254 150.91710343 137.37835868 149.34375 137.0078125 C148.59609375 136.83024414 147.8484375 136.65267578 147.078125 136.46972656 C144.42202265 135.86935756 141.75168711 135.4250152 139.0625 135 C134.35114734 134.18471233 130.06594756 132.71212957 125.609375 131 C123.29684719 130.1137618 120.98214453 129.31953912 118.625 128.5625 C108.31703011 125.13259144 98.62633701 120.93771179 88.96875 116.00390625 C83.39276761 113.16261523 77.7020601 110.5776436 72 108 C72 107.34 72 106.68 72 106 C71.44828125 105.89558594 70.8965625 105.79117188 70.328125 105.68359375 C67.50411491 104.85439616 65.27445084 103.5720035 62.75 102.0625 C61.85796875 101.53785156 60.9659375 101.01320313 60.046875 100.47265625 C59.03367187 99.74369141 59.03367187 99.74369141 58 99 C58 98.34 58 97.68 58 97 C57.41677979 96.88390381 56.83355957 96.76780762 56.23266602 96.64819336 C53.84857689 95.95603845 52.3065856 95.04603339 50.27734375 93.62890625 C49.23018188 92.89837036 49.23018188 92.89837036 48.16186523 92.15307617 C47.42782471 91.62818604 46.69378418 91.1032959 45.9375 90.5625 C45.17961182 90.02407471 44.42172363 89.48564941 43.64086914 88.9309082 C37.3154582 84.36685093 31.64559377 79.38387751 26 74 C21.41778249 69.89843468 16.74348053 65.91337144 12 62 C13.90304269 68.64395605 16.02710786 75.21066314 18.24243164 81.75610352 C19.85520125 86.52976647 21.42567107 91.31452122 22.95413208 96.11573792 C23.90652927 99.10015591 24.87142745 102.0804693 25.83740234 105.06051636 C26.31822667 106.55384421 26.79371423 108.04890163 27.26367188 109.54568481 C27.93384298 111.67719796 28.62312203 113.80169118 29.31640625 115.92578125 C29.71287354 117.16755127 30.10934082 118.40932129 30.51782227 119.6887207 C32.16107538 123.35985264 34.02811365 125.32991189 37 128 C37.92052117 129.00637834 38.83162516 130.02158557 39.7265625 131.05078125 C45.92744501 138.05727764 52.14611929 143.81572366 60 149 C60.73605469 149.52980469 61.47210937 150.05960938 62.23046875 150.60546875 C69.64407875 155.85846381 77.9294947 159.55811874 86.4375 162.6875 C90 164 90 164 93.0625 165.625 C96.00770712 167.17904931 96.00770712 167.17904931 99.5625 167.5 C103 168 103 168 105.3203125 169.41796875 C122.57515238 179.60486401 153.29306702 181.27861128 173 183 C173 185.64 173 188.28 173 191 C169.66462874 190.68234559 166.33252704 190.34582828 163 190 C162.35160156 189.93554688 161.70320313 189.87109375 161.03515625 189.8046875 C153.01729541 188.99842216 145.35170113 188.06728411 137.61328125 185.71875 C134.71358031 184.92122388 131.84792774 184.44874381 128.875 184 C124.52109125 183.31812982 120.55435668 182.34206841 116.4140625 180.8515625 C113.44841562 179.80542817 110.44857725 178.90678418 107.4375 178 C100.31913002 175.81482596 93.61900522 173.38603583 86.99609375 169.96484375 C85.04553887 169.02201194 83.10575082 168.2786493 81.0625 167.5625 C65.79567791 162.00822815 49.90791297 150.91307901 39 139 C39 142.35401449 39.75829964 144.52636155 40.87109375 147.6875 C41.27602051 148.84741455 41.68094727 150.0073291 42.09814453 151.20239258 C42.31617737 151.82046783 42.53421021 152.43854309 42.7588501 153.0753479 C43.91816837 156.36317618 45.06169049 159.65650089 46.20703125 162.94921875 C46.44194275 163.62337326 46.67685425 164.29752777 46.91888428 164.99211121 C49.21082027 171.58011922 51.4275069 178.19241887 53.625 184.8125 C53.99061035 185.91198975 54.3562207 187.01147949 54.73291016 188.14428711 C56.56216119 193.65113724 58.38293733 199.16073511 60.19921875 204.671875 C60.55483887 205.74719482 60.91045898 206.82251465 61.27685547 207.93041992 C61.94136997 209.9400985 62.60337682 211.95060899 63.26220703 213.9621582 C64.69262431 218.28437311 66.18859419 222.54174908 67.91796875 226.75390625 C70.32879099 232.67602974 72.31944512 238.73285119 74.31784058 244.80319214 C75.017603 246.92846261 75.72134267 249.05238161 76.42602539 251.17602539 C77.95399195 255.78292489 79.4771568 260.39140489 81 265 C82.88211847 270.69491146 84.76680979 276.38895409 86.65649414 282.08135986 C87.41997818 284.38464012 88.17979185 286.68910899 88.93945312 288.99365234 C91.12777904 295.60371884 93.39840939 302.13471692 96.05493164 308.57446289 C98.36572749 314.5051673 100.11462779 320.64674972 102 326.72265625 C103.77769419 332.38211237 105.71455662 337.88640954 107.96826172 343.37207031 C110.06313039 348.70788819 111.77779465 354.17946173 113.5625 359.625 C114.44945431 362.31198437 115.33956779 364.99791563 116.23046875 367.68359375 C116.45833069 368.3709108 116.68619263 369.05822784 116.92095947 369.76637268 C119.3540886 377.09117874 121.85868409 384.39093013 124.375 391.6875 C124.60040466 392.34155823 124.82580933 392.99561646 125.05804443 393.66949463 C126.22080319 397.04340457 127.38436317 400.41703741 128.54833984 403.79052734 C131.10130747 411.19142331 133.64566597 418.5952739 136.1875 426 C136.44137482 426.73914642 136.69524963 427.47829285 136.95681763 428.23983765 C140.12806479 437.47626165 143.25088448 446.72653172 146.3125 456 C149.64897482 466.08837922 153.26477189 476.05347629 157 486 C160.82991271 496.23278439 164.57297848 506.47397406 167.95922852 516.86352539 C168.18408936 517.5518042 168.4089502 518.24008301 168.640625 518.94921875 C168.92728027 519.83613403 168.92728027 519.83613403 169.21972656 520.7409668 C169.89540139 522.69716805 170.70064388 524.60769791 171.52748108 526.50495911 C173.36419741 531.42328603 173.4018538 535.97752615 173.34057617 541.1796875 C173.34101425 542.16596634 173.34145233 543.15224518 173.34190369 544.16841125 C173.33982614 547.40414747 173.31654371 550.63935513 173.29296875 553.875 C173.28736913 556.12800819 173.28310076 558.38102005 173.28010559 560.6340332 C173.26868573 566.54581905 173.23924302 572.45738159 173.20599365 578.36907959 C173.17523116 584.40878275 173.16158705 590.44852222 173.14648438 596.48828125 C173.11437068 608.32561861 173.06320886 620.16279069 173 632 C172.34 632 171.68 632 171 632 C171 631.01 171 630.02 171 629 C170.34 629 169.68 629 169 629 C167.3284454 626.54978957 165.77402347 624.10244539 164.25 621.5625 C163.34471961 620.08273971 162.4384755 618.60356856 161.53125 617.125 C161.09425781 616.40957031 160.65726563 615.69414063 160.20703125 614.95703125 C157.91039031 611.23335129 155.45392965 607.6207838 153 604 C152.02029032 602.52119294 151.04113836 601.04201626 150.0625 599.5625 C146.78857037 594.65160556 143.39943127 589.82452037 140 585 C136.49132623 580.02044115 132.99338939 575.03358185 129.5625 570 C129.06878906 569.278125 128.57507813 568.55625 128.06640625 567.8125 C127 566 127 566 127 564 C126.34 564 125.68 564 125 564 C123.87426758 562.59814453 123.87426758 562.59814453 122.64453125 560.6328125 C121.963302 559.55870117 121.963302 559.55870117 121.26831055 558.46289062 C120.54768433 557.30563477 120.54768433 557.30563477 119.8125 556.125 C118.81652182 554.55378797 117.8191306 552.98347073 116.8203125 551.4140625 C116.09376465 550.2698584 116.09376465 550.2698584 115.35253906 549.10253906 C113.18846789 545.73846309 110.88307996 542.48120458 108.5703125 539.21875 C106.87795718 536.82756139 105.21041065 534.42204542 103.5625 532 C103.06878906 531.278125 102.57507813 530.55625 102.06640625 529.8125 C101 528 101 528 101 526 C100.34 526 99.68 526 99 526 C97.5625 523.84765625 97.5625 523.84765625 96 521.0625 C94.13922105 517.37612792 94.13922105 517.37612792 91 515 C90.375 512.4375 90.375 512.4375 90 510 C89.34 510 88.68 510 88 510 C86.35480905 507.54875571 84.81967528 505.09681018 83.3125 502.5625 C80.00018511 497.11700178 76.60007999 491.96295001 72.58203125 487.00390625 C69.81514793 483.49918737 67.43152096 479.74130026 65 476 C62.17164909 471.679934 59.34490198 467.40059623 56.1875 463.3125 C52.93289381 459.0531737 50.08973292 454.550655 47.24682617 450.01098633 C45.0215685 446.48292165 42.61181183 443.24640868 40 440 C38.21031338 437.26837305 36.49793816 434.49666357 34.78125 431.71875 C32.9981219 428.99713343 31.0391462 426.53336675 29 424 C27.56034352 421.95348103 26.14390492 419.89045086 24.75 417.8125 C24.04359375 416.76707031 23.3371875 415.72164062 22.609375 414.64453125 C21 412 21 412 21 410 C20.34 410 19.68 410 19 410 C17.3633245 407.73701547 15.85434489 405.48732888 14.375 403.125 C13.95476562 402.47402344 13.53453125 401.82304688 13.1015625 401.15234375 C10 396.26838981 10 396.26838981 10 394 C9.34 394 8.68 394 8 394 C6.68725586 392.3034668 6.68725586 392.3034668 5.21484375 389.94921875 C4.41916992 388.68368164 4.41916992 388.68368164 3.60742188 387.39257812 C3.05634766 386.49990234 2.50527344 385.60722656 1.9375 384.6875 C1.38255859 383.80642578 0.82761719 382.92535156 0.25585938 382.01757812 C-3.85629219 375.43112342 -3.85629219 375.43112342 -5 372 C-5.66 372 -6.32 372 -7 372 C-8.4615032 369.92296745 -9.80412606 367.85182357 -11.125 365.6875 C-14.6362118 360.06956111 -18.33936462 354.6713821 -22.27734375 349.33984375 C-25.19610556 345.37535776 -27.83599951 341.43149666 -30 337 C-24.01748041 335.27849947 -18.03468857 333.76217814 -11.9375 332.5 C-7.00640293 331.474031 -2.26278295 330.21213188 2.53515625 328.6953125 C6.9529454 327.44908989 11.47292346 326.7315618 16 326 C16.33 325.01 16.66 324.02 17 323 C16.34 323 15.68 323 15 323 C11 316.25 11 316.25 11 314 C10.34 314 9.68 314 9 314 C7.6328125 312.05859375 7.6328125 312.05859375 6.125 309.4375 C5.59003906 308.51839844 5.05507813 307.59929687 4.50390625 306.65234375 C3.65104313 305.14820333 2.80188954 303.641906 1.96484375 302.12890625 C-0.5261869 297.63211066 -3.43724067 293.55093649 -6.51171875 289.4296875 C-8.06422178 286.89515499 -8.60959438 284.92543947 -9 282 C-9.66 282 -10.32 282 -11 282 C-12.2265625 280.26953125 -12.2265625 280.26953125 -13.625 277.8125 C-19.48824827 267.71230589 -25.70479673 257.83536293 -32 248 C-33.78789738 245.1970383 -35.57393978 242.39295155 -37.35546875 239.5859375 C-38.4145298 237.9206206 -39.47920856 236.25885628 -40.55078125 234.6015625 C-41.00839844 233.88742187 -41.46601562 233.17328125 -41.9375 232.4375 C-42.33839844 231.81746094 -42.73929688 231.19742188 -43.15234375 230.55859375 C-44 229 -44 229 -44 227 C-44.66 227 -45.32 227 -46 227 C-46.391875 226.175 -46.78375 225.35 -47.1875 224.5 C-48.9512815 221.0940771 -50.90845931 217.93579644 -53.01171875 214.734375 C-54 213 -54 213 -54 211 C-54.66 211 -55.32 211 -56 211 C-57.33858524 208.71125827 -58.67101014 206.41930344 -60 204.125 C-60.57234375 203.14853516 -60.57234375 203.14853516 -61.15625 202.15234375 C-64 197.2265625 -64 197.2265625 -64 195 C-64.66 195 -65.32 195 -66 195 C-66.57621094 193.97519531 -67.15242187 192.95039063 -67.74609375 191.89453125 C-69.73645785 188.41248576 -71.86864127 185.04594916 -74.0625 181.6875 C-78.12331873 175.43219842 -82.02268991 169.08716954 -85.88818359 162.7097168 C-89.27005552 157.14678254 -92.75359618 151.65896874 -96.359375 146.23828125 C-99 142.21400773 -99 142.21400773 -99 140 C-99.66 140 -100.32 140 -101 140 C-102.32421875 138.390625 -102.32421875 138.390625 -103.6875 136.25 C-104.14511719 135.55390625 -104.60273437 134.8578125 -105.07421875 134.140625 C-106.21375238 131.50575399 -105.95483787 130.66273417 -105 128 C-103.69311523 126.35253906 -103.69311523 126.35253906 -102.05859375 124.765625 C-101.47529297 124.19199219 -100.89199219 123.61835938 -100.29101562 123.02734375 C-99.67935547 122.44082031 -99.06769531 121.85429687 -98.4375 121.25 C-97.82197266 120.64800781 -97.20644531 120.04601562 -96.57226562 119.42578125 C-95.05485187 117.94365619 -93.52829404 116.4709033 -92 115 C-110.40342962 125.17977127 -123.37432835 139.58339335 -134.7265625 157.05078125 C-135.83694576 158.75041697 -137.00747014 160.4104582 -138.1875 162.0625 C-139.99401728 164.99030386 -141.12160213 167.7233754 -142.19140625 170.97265625 C-143 173 -143 173 -144.421875 175.2265625 C-146.44597434 178.78376679 -147.53098434 182.4027084 -148.6875 186.3125 C-148.91244141 187.05306641 -149.13738281 187.79363281 -149.36914062 188.55664062 C-149.91877951 190.36927951 -150.4602267 192.18439889 -151 194 C-151.66 194 -152.32 194 -153 194 C-152.938125 194.99 -152.87625 195.98 -152.8125 197 C-152.80387581 200.64076905 -153.88995947 203.39754392 -155.21362305 206.78271484 C-156.54679495 210.54175465 -157.25960975 214.40072625 -158 218.3125 C-158.16733643 219.17407715 -158.33467285 220.0356543 -158.50708008 220.92333984 C-159.66327562 226.97477588 -160.71406041 233.04161402 -161.6875 239.125 C-161.80673828 239.86919189 -161.92597656 240.61338379 -162.04882812 241.38012695 C-163.6369884 251.67448089 -164.17693793 261.80259654 -164.23828125 272.21875 C-164.24308376 272.89049318 -164.24788628 273.56223637 -164.25283432 274.2543354 C-164.28870149 279.33621629 -164.30434609 284.41800642 -164.3125 289.5 C-164.31409245 290.24457836 -164.31568489 290.98915672 -164.31732559 291.75629807 C-164.35585758 312.93614448 -163.89010669 333.66656423 -160.51708984 354.62597656 C-159.82437223 359.14597535 -159.33836559 363.67938999 -158.84863281 368.22509766 C-157.76226944 378.23516013 -156.11534079 387.9632035 -153.90234375 397.78125 C-153.06163937 401.56399298 -152.48937441 405.34179664 -152 409.1875 C-151.15174858 415.6357121 -149.64002118 421.78554284 -148.00390625 428.06640625 C-147.06872656 431.67076296 -146.26405578 435.29257815 -145.5 438.9375 C-142.42114028 453.54150307 -138.7407762 467.92430912 -134.74365234 482.30175781 C-134.02952884 484.8928586 -133.33385598 487.48814334 -132.64453125 490.0859375 C-130.60886972 497.69999068 -128.54158013 504.91683974 -125 512 C-124.16855469 511.94199219 -123.33710937 511.88398437 -122.48046875 511.82421875 C-121.39378906 511.77910156 -120.30710937 511.73398437 -119.1875 511.6875 C-118.10855469 511.62949219 -117.02960938 511.57148437 -115.91796875 511.51171875 C-113 512 -113 512 -111.17578125 514.39453125 C-110.78777344 515.25433594 -110.39976562 516.11414063 -110 517 C-109.67 517.66 -109.34 518.32 -109 519 C-108.960008 520.99960012 -108.95653201 523.00047242 -109 525 C-107.75605469 524.9278125 -106.51210938 524.855625 -105.23046875 524.78125 C-76.18845752 523.13598412 -46.7028746 525.38158279 -20 538 C-16.03099226 539.74347101 -12.03346565 541.41105899 -8 543 C-8 543.66 -8 544.32 -8 545 C-7.27039063 545.10054687 -6.54078125 545.20109375 -5.7890625 545.3046875 C-2.67345916 546.08140654 -0.93877866 547.21288414 1.625 549.125 C6.16698632 552.44126287 10.83715983 555.42125175 15.65234375 558.32421875 C18.02112246 560.01507743 19.28885095 561.68434246 21 564 C21.99 564.33 22.98 564.66 24 565 C25.47265625 566.49609375 25.47265625 566.49609375 27.0625 568.4375 C32.22348286 574.52987042 37.96816328 580.03465093 43.671875 585.61328125 C46.21740307 588.22287463 48.07008395 590.91213432 50 594 C50.86625 595.36125 50.86625 595.36125 51.75 596.75 C53 599 53 599 53 601 C53.66 601 54.32 601 55 601 C55.433125 601.9075 55.86625 602.815 56.3125 603.75 C57.81455979 606.87983322 57.81455979 606.87983322 59.5 608.9375 C61.55319894 611.76064854 62.68661225 614.77125511 64 618 C64.45375 619.0725 64.9075 620.145 65.375 621.25 C65.62378906 621.84167969 65.87257813 622.43335938 66.12890625 623.04296875 C66.74132104 624.41884233 67.39956201 625.77477795 68.08984375 627.11328125 C74.25263425 639.45855168 77.65727573 653.77084854 79.56640625 667.390625 C80.19879564 671.19635577 81.2908459 674.8407467 82.4140625 678.52734375 C83 681 83 681 83 686 C93.89 686 104.78 686 116 686 C116 697.55 116 709.1 116 721 C108.08 721 100.16 721 92 721 C93.51343662 731.36704082 95.17299795 741.24089202 98.02734375 751.3125 C99.24111122 755.91409235 100.09182049 760.53781943 100.92358398 765.22021484 C101.83351849 770.28479232 103.02012355 775.23011166 104.31640625 780.20703125 C105.21001133 783.85804629 105.83357304 787.53582396 106.47265625 791.23828125 C107.01760168 794.09218066 107.70524916 796.87611205 108.4375 799.6875 C109.66931729 804.45382822 110.63172939 809.22076835 111.5 814.0625 C112.47828787 819.50458476 113.71433917 824.78292295 115.25 830.09375 C116.50180088 834.9444784 117.30695543 839.87850295 118.15625 844.8125 C118.75592589 848.03728368 119.57137398 851.16241091 120.45703125 854.3203125 C126.4067347 875.69803485 128.56607016 897.35417159 123 919 C122.7834375 919.9590625 122.566875 920.918125 122.34375 921.90625 C120.53716158 929.39068775 117.42714525 936.12817935 114 943 C113.41412109 944.2065625 113.41412109 944.2065625 112.81640625 945.4375 C109.43260304 951.9943505 104.78369626 957.42040281 100 963 C99.41089844 963.71285156 98.82179688 964.42570312 98.21484375 965.16015625 C92.07515692 972.46101317 85.08488319 978.92344544 77 984 C76.154375 984.70125 75.30875 985.4025 74.4375 986.125 C71.01752597 988.75574925 68.32538024 990 64 990 C63.62875 990.804375 63.62875 990.804375 63.25 991.625 C59.63731211 998.48910698 56.0276793 1002.41088009 48.703125 1005.30078125 C40.07639548 1007.82829589 32.95431128 1009.52389443 24.6875 1005.3125 C20.00637337 1001.28455383 15.62537745 996.81841042 14.59375 990.51953125 C14.3730506 984.1468362 15.26605624 980.04953059 19.16796875 974.94140625 C24.02514984 969.7942442 29.21482268 967.56187758 36.1171875 966.359375 C38.08032925 966.07299789 38.08032925 966.07299789 40 965 C42.24867084 964.87026899 44.49912356 964.77060198 46.75 964.6875 C52.5518098 964.32525804 55.64178676 963.76926551 60 960 C60.99 959.67 61.98 959.34 63 959 C64.68997323 957.35697047 66.35216394 955.68528688 68 954 C69.05942273 953.162758 70.12216596 952.32970722 71.1875 951.5 C74.66190274 948.56656786 77.42190943 945.1500728 80.1875 941.5625 C80.60346436 941.02496094 81.01942871 940.48742188 81.44799805 939.93359375 C88.66944205 930.3608811 94.28775428 919.10817727 95 907 C95.66 907 96.32 907 97 907 C97 898.09 97 889.18 97 880 C96.34 880 95.68 880 95 880 C94.81824219 878.98421875 94.63648438 877.9684375 94.44921875 876.921875 C93.11675197 869.58614391 91.63962536 862.36160283 89.75390625 855.14453125 C88.53419127 850.05711903 87.65330269 844.91282035 86.74609375 839.76171875 C86.05756427 836.01948923 86.05756427 836.01948923 85 832.5 C83.93964826 828.78876891 83.23182663 825.11291391 82.5625 821.3125 C81.51170627 815.49091512 80.24193059 809.78543149 78.75 804.05859375 C77.58076359 799.29030151 76.68913344 794.47029396 75.75 789.65234375 C75.08704212 786.423877 74.33065796 783.25101517 73.5 780.0625 C71.93394637 774.01146554 70.82959533 767.91380401 69.74609375 761.76171875 C69.01938 758.09771174 68.02993903 754.5881747 67 751 C66.6547112 749.10986352 66.34090944 747.21363873 66.0625 745.3125 C65.41752045 741.24106657 64.6136054 737.2979413 63.5625 733.3125 C62.34782415 728.6350915 61.42450556 723.95045239 60.625 719.1875 C59.43001575 712.12563864 58.01696399 705.1246729 56.5 698.125 C56.29842285 697.1868042 56.0968457 696.2486084 55.88916016 695.28198242 C54.65040445 689.62897797 53.21120116 684.0621841 51.66064453 678.48730469 C50.83277684 675.37041037 50.24263106 672.2384539 49.6875 669.0625 C45.44503554 645.35919984 45.44503554 645.35919984 34 625 C33.30507833 623.35745788 32.61116106 621.71365195 31.9765625 620.046875 C25.44404164 606.35471128 11.85664619 590.42558988 -1.3125 582.96484375 C-3.7524201 581.56979684 -5.81737583 579.76688623 -8 578 C-14.35683786 573.24093108 -20.75932549 569.26517759 -28 566 C-29.09828125 565.49533203 -29.09828125 565.49533203 -30.21875 564.98046875 C-38.47713732 561.43105913 -47.28751299 559.15634688 -56 557 C-56.64564407 556.83335846 -57.29128815 556.66671692 -57.95649719 556.49502563 C-63.45908586 555.15557946 -68.63238404 554.6797853 -74.28515625 554.6640625 C-75.14451279 554.6574057 -76.00386932 554.6507489 -76.88926697 554.64389038 C-78.69853602 554.63382984 -80.50784168 554.6290713 -82.31713867 554.62939453 C-85.03173926 554.62504924 -87.74467331 554.58873675 -90.45898438 554.55078125 C-103.46328671 554.46738514 -114.86308817 556.04460752 -127 561 C-128.051875 561.28875 -129.10375 561.5775 -130.1875 561.875 C-137.45507108 564.01952917 -143.76583923 566.65058551 -150 571 C-150.73347656 571.27714844 -151.46695313 571.55429687 -152.22265625 571.83984375 C-155.79576899 573.33240983 -158.88810001 575.32840411 -162.125 577.4375 C-162.74503906 577.83259766 -163.36507812 578.22769531 -164.00390625 578.63476562 C-166.96912196 580.55099642 -169.53075669 582.49040958 -172 585 C-172.66 585 -173.32 585 -174 585 C-174.20625 585.53109375 -174.4125 586.0621875 -174.625 586.609375 C-176.57961192 590.00773436 -179.22123717 592.51055928 -182 595.25 C-182.81984375 596.08144531 -182.81984375 596.08144531 -183.65625 596.9296875 C-187.7466133 601 -187.7466133 601 -190 601 C-190.37125 601.804375 -190.37125 601.804375 -190.75 602.625 C-192 605 -192 605 -194.1796875 607.4296875 C-196.83012028 611.38240487 -195.85969949 614.93406141 -195.02734375 619.41015625 C-194.81207031 620.42980469 -194.59679687 621.44945312 -194.375 622.5 C-194.18292969 623.51964844 -193.99085938 624.53929687 -193.79296875 625.58984375 C-192.8333061 630.54273354 -191.62535155 635.22160595 -190 640 C-189.63766752 642.09616049 -189.32790777 644.20187632 -189.0625 646.3125 C-188.46624192 650.8611956 -187.77396422 655.35755572 -186.92549133 659.86773682 C-185.19293743 669.13000759 -184.08297755 678.36271807 -183.3125 687.75 C-183.21819199 688.87468689 -183.21819199 688.87468689 -183.12197876 690.02209473 C-181.02595 715.45832937 -182.04524094 740.60112935 -184 766 C-184.66 766 -185.32 766 -186 766 C-186.06131104 765.32340332 -186.12262207 764.64680664 -186.18579102 763.94970703 C-186.60613938 759.31744398 -187.02912094 754.68553074 -187.46484375 750.0546875 C-188.2470835 741.55473358 -188.96786419 733.06528828 -189.3984375 724.5390625 C-190.19215724 708.93212727 -191.49135433 693.50261961 -193.5 678 C-193.66153061 676.74304321 -193.66153061 676.74304321 -193.82632446 675.46069336 C-194.8937517 667.2294113 -195.98622611 659.06352138 -198 651 C-198.24621094 649.98292969 -198.49242187 648.96585938 -198.74609375 647.91796875 C-198.97425781 647.01691406 -199.20242188 646.11585938 -199.4375 645.1875 C-200.24588969 641.99497625 -201.04799929 638.80208822 -201.82421875 635.6015625 C-202.08847656 634.51617188 -202.35273437 633.43078125 -202.625 632.3125 C-202.86476563 631.31863281 -203.10453125 630.32476563 -203.3515625 629.30078125 C-203.78222537 627.0548482 -203.78222537 627.0548482 -205 626 C-207.84546741 632.26608248 -210.5648644 638.56238697 -213 645 C-213.42667969 646.11246094 -213.85335937 647.22492187 -214.29296875 648.37109375 C-223.75581938 674.59512261 -222.01707486 705.53533758 -214.74609375 732.1328125 C-213.87412636 735.48372382 -213.21636282 738.84991333 -212.5625 742.25 C-211.27680631 748.86117227 -209.69092357 755.34627617 -207.96484375 761.85546875 C-207.15730057 765.10150756 -206.59130928 768.35370692 -206.0625 771.65625 C-204.99601537 778.27343198 -203.5541793 784.77998949 -202.0625 791.3125 C-200.41946736 798.59055166 -198.78871014 805.86120106 -197.375 813.1875 C-196.26175061 818.93160335 -194.87217886 824.56896991 -193.40966797 830.23095703 C-192.41092958 834.15958436 -191.60693503 838.05565459 -191 842.0625 C-190.10439681 847.95588884 -188.52864923 853.58827954 -186.94140625 859.328125 C-185.8483886 863.59134739 -185.15116508 867.84056019 -184.4921875 872.1875 C-184.00927526 874.94699852 -183.33914502 877.55976569 -182.5625 880.25 C-181.25684178 884.79027883 -180.32931523 889.35322784 -179.5 894 C-178.68474406 898.56118437 -177.78823407 903.04485716 -176.5 907.5 C-175.25128305 911.83492412 -174.36059715 916.18899012 -173.5625 920.625 C-173.1761834 922.70783663 -172.78690807 924.79009138 -172.39599609 926.87207031 C-172.13268278 928.28701409 -171.87516116 929.70304833 -171.62353516 931.12011719 C-168.19286543 950.01706347 -157.87792597 969.58153087 -141.875 980.8125 C-140.25316254 981.87982118 -138.62855871 982.94296274 -137 984 C-136.071875 984.70125 -135.14375 985.4025 -134.1875 986.125 C-123.3403574 992.50567212 -109.67513508 996.68157998 -97 995 C-95.95070313 994.51015625 -94.90140625 994.0203125 -93.8203125 993.515625 C-89.17391365 991.39731162 -84.59930885 991.44823946 -79.5625 991.4375 C-78.20801758 991.38239258 -78.20801758 991.38239258 -76.82617188 991.32617188 C-69.87888966 991.28089632 -65.9802263 993.20929605 -61 998 C-56.48843056 1002.97429452 -55.62544563 1006.81192255 -55.73046875 1013.37109375 C-56.25815947 1018.51799023 -58.14386186 1022.18730339 -61.8359375 1025.79296875 C-68.6966078 1031.32619135 -75.54537977 1031.21904221 -84.0625 1031.3125 C-85.38991211 1031.35600586 -85.38991211 1031.35600586 -86.74414062 1031.40039062 C-92.40208777 1031.4555694 -94.65272845 1030.79671249 -99 1027 C-101.70450016 1026.34022709 -104.1981399 1025.8612309 -106.9375 1025.5 C-120.64088036 1023.38235263 -133.70441066 1019.47136281 -146 1013 C-146 1012.34 -146 1011.68 -146 1011 C-146.70898438 1010.91492187 -147.41796875 1010.82984375 -148.1484375 1010.7421875 C-151.63451512 1009.83485223 -153.75253763 1008.28528162 -156.625 1006.125 C-157.56601562 1005.42632813 -158.50703125 1004.72765625 -159.4765625 1004.0078125 C-161.47746396 1002.41576397 -163.22803416 1000.8284633 -165 999 C-165.969375 998.21625 -166.93875 997.4325 -167.9375 996.625 C-170.71020018 994.33598954 -172.81450194 991.8684662 -175 989 C-176.3303125 987.5459375 -176.3303125 987.5459375 -177.6875 986.0625 C-193.74587242 967.32095649 -200.2152611 944.37590828 -204.35546875 920.52734375 C-205.12862502 916.29607036 -206.17988338 912.17341416 -207.2578125 908.01171875 C-208.36180019 903.53185293 -209.22573522 899.01132936 -210.11328125 894.484375 C-211.22726577 888.81557804 -212.39317154 883.15759944 -213.5625 877.5 C-213.77245605 876.47293945 -213.98241211 875.44587891 -214.19873047 874.38769531 C-215.276886 869.18357067 -216.53134669 864.10968962 -218 859 C-218.50717233 856.44289555 -218.9853308 853.8799014 -219.4375 851.3125 C-220.50282057 845.40096169 -221.80178904 839.60815711 -223.31640625 833.79296875 C-224.21001133 830.14195371 -224.83357304 826.46417604 -225.47265625 822.76171875 C-226.01760168 819.90781934 -226.70524916 817.12388795 -227.4375 814.3125 C-228.66931729 809.54617178 -229.63172939 804.77923165 -230.5 799.9375 C-231.47732247 794.50078562 -232.71076945 789.2271841 -234.24609375 783.921875 C-235.36823107 779.57286609 -236.14339977 775.16806704 -236.91015625 770.74414062 C-237.46234358 767.6161249 -238.11521278 764.6005957 -238.99609375 761.546875 C-240.32465844 756.85295774 -241.0725999 752.12545774 -241.85546875 747.31640625 C-242.6210455 742.76410578 -243.71274702 738.4400171 -245 734 C-245.53089868 731.44372286 -246.0298136 728.88063765 -246.5 726.3125 C-246.7371875 725.02988281 -246.974375 723.74726562 -247.21875 722.42578125 C-247.34032471 721.72960693 -247.46189941 721.03343262 -247.5871582 720.31616211 C-247.88236981 718.65993946 -248.19837925 717.00737002 -248.52807617 715.35766602 C-250.10362554 707.00098595 -250.35688806 698.79909814 -250.3125 690.3125 C-250.31100952 689.60689941 -250.30951904 688.90129883 -250.3079834 688.17431641 C-250.26740341 677.48300463 -249.59992162 667.41074996 -247 657 C-246.68189005 655.61888089 -246.36553226 654.23735722 -246.05078125 652.85546875 C-242.97379512 639.67145927 -238.48056604 627.34954214 -233 615 C-232.34 615 -231.68 615 -231 615 C-230.87625 614.2575 -230.7525 613.515 -230.625 612.75 C-230.04513299 610.19858515 -229.26291261 608.2732427 -228 606 C-227.34 606 -226.68 606 -226 606 C-225.814375 605.21625 -225.62875 604.4325 -225.4375 603.625 C-223.73891528 599.34161244 -221.33405339 596.11737171 -218.55859375 592.46484375 C-216.45980827 589.14571183 -215.69661145 586.63602986 -216.41796875 582.74609375 C-216.67191406 581.98425781 -216.92585937 581.22242188 -217.1875 580.4375 C-217.46980469 579.57125 -217.75210938 578.705 -218.04296875 577.8125 C-218.35878906 576.884375 -218.67460938 575.95625 -219 575 C-219.32613281 574.01 -219.65226563 573.02 -219.98828125 572 C-220.66482476 569.95208451 -221.34846952 567.90650182 -222.0390625 565.86328125 C-222.61157607 564.15737699 -223.17304024 562.44760231 -223.7109375 560.73046875 C-225.56288773 554.85869715 -227.99160847 549.28554556 -230.44140625 543.640625 C-231.95187909 540.11240272 -233.40613842 536.57093549 -234.8125 533 C-235.21082031 531.989375 -235.60914063 530.97875 -236.01953125 529.9375 C-237.01332508 526.96007785 -237.57030313 524.10490645 -238 521 C-238.66 521 -239.32 521 -240 521 C-240.29132813 520.21238281 -240.58265625 519.42476562 -240.8828125 518.61328125 C-243.91366003 510.55961407 -247.32617714 502.77775181 -251 495 C-251.57702517 493.74548251 -252.15250228 492.490252 -252.7265625 491.234375 C-255.8574483 484.41033949 -259.12170516 477.74874658 -262.93359375 471.26953125 C-264 469 -264 469 -264 465 C-264.66 465 -265.32 465 -266 465 C-266.37125 464.071875 -266.7425 463.14375 -267.125 462.1875 C-268.98932957 457.7743527 -271.38798864 453.68781517 -273.79296875 449.55078125 C-275 447 -275 447 -275 443 C-275.66 443 -276.32 443 -277 443 C-277.58007812 441.78763672 -277.58007812 441.78763672 -278.171875 440.55078125 C-278.69265625 439.48214844 -279.2134375 438.41351562 -279.75 437.3125 C-280.26046875 436.25675781 -280.7709375 435.20101563 -281.296875 434.11328125 C-282.95120483 431.08919668 -284.84500005 428.67664676 -287 426 C-287.96850064 424.21465954 -288.88368442 422.39959862 -289.75 420.5625 C-292.09055834 415.75002545 -294.58646581 411.07566066 -297.25 406.4375 C-297.76191895 405.54430054 -297.76191895 405.54430054 -298.28417969 404.63305664 C-299.78681462 402.03110595 -301.33249195 399.50126208 -303 397 C-303 396.01 -303 395.02 -303 394 C-303.66 394 -304.32 394 -305 394 C-305 391.69 -305 389.38 -305 387 C-302.42123065 387.34848234 -300.49876597 387.63551717 -298.375 389.1875 C-296.52419002 391.62720406 -295.35121964 394.24751554 -294 397 C-291.06523396 402.15721022 -287.90510483 407.16692013 -284.66992188 412.13916016 C-281.02296882 417.7450567 -277.59648392 423.3727783 -274.46484375 429.2890625 C-272.86816327 432.24398584 -271.16056251 435.11711262 -269.4375 438 C-261 452.3625 -261 452.3625 -261 457 C-260.34 457 -259.68 457 -259 457 C-258.55269531 458.0621875 -258.10539062 459.124375 -257.64453125 460.21875 C-253.50555911 469.99478398 -253.50555911 469.99478398 -248.18359375 479.15625 C-244.36400336 485.106239 -241.70521669 491.63621275 -239.1796875 498.2109375 C-237.19228542 502.90962984 -234.77060445 507.38847645 -232.390625 511.8984375 C-231 515 -231 515 -231 519 C-230.34 519 -229.68 519 -229 519 C-228.608125 520.216875 -228.21625 521.43375 -227.8125 522.6875 C-224.94320764 531.28184268 -221.64700751 539.69843504 -217.90625 547.94921875 C-215.4483259 553.51133147 -213.66948224 559.15681217 -212 565 C-211.46860808 566.42055266 -210.9267085 567.83721376 -210.375 569.25 C-209 573 -209 573 -209 576 C-204.99068088 576.43936395 -204.99068088 576.43936395 -202.6953125 573.98046875 C-201.84710937 573.05878906 -200.99890625 572.13710938 -200.125 571.1875 C-195.91480012 566.75789022 -191.51299234 562.81301915 -186.6875 559.0625 C-185.82632568 558.39093872 -185.82632568 558.39093872 -184.94775391 557.70581055 C-181.39715074 554.9773062 -177.75277046 552.44678569 -174 550 C-172.91332031 549.28263672 -172.91332031 549.28263672 -171.8046875 548.55078125 C-171.16789063 548.14214844 -170.53109375 547.73351562 -169.875 547.3125 C-168.91207031 546.68794922 -168.91207031 546.68794922 -167.9296875 546.05078125 C-165.95649515 544.97631011 -164.19401152 544.44367789 -162 544 C-161.979375 542.700625 -161.95875 541.40125 -161.9375 540.0625 C-161.92589844 539.33160156 -161.91429687 538.60070312 -161.90234375 537.84765625 C-161.79438816 535.98267859 -161.79438816 535.98267859 -163 535 C-163.42533222 531.94976036 -163.4997622 529.04250833 -163 526 C-160.38479318 523.73819951 -158.26192902 523.08730967 -155 522 C-155.54512513 516.66597986 -156.48193332 511.98618041 -158.1875 506.875 C-161.20630471 497.58371575 -163.74817285 488.17660776 -166.26806641 478.73974609 C-166.96980374 476.11302948 -167.67787403 473.48808709 -168.38671875 470.86328125 C-170.53235051 462.87032685 -172.52209597 454.88672589 -174.1875 446.77734375 C-175.00664184 442.96912181 -175.91310439 439.19061299 -176.83666992 435.40673828 C-179.00867671 426.50286944 -180.87730894 417.62157464 -182.3828125 408.58203125 C-182.85733671 405.82798887 -183.39874551 403.14868181 -184.0625 400.4375 C-185.12981861 395.8707761 -185.6274533 391.23951782 -186.16619873 386.58786011 C-186.66914621 382.35411874 -187.29303572 378.16680037 -188.04899597 373.97129822 C-190.06880094 362.68333374 -191.23155273 351.35932722 -192.1875 339.9375 C-192.27371613 338.91596832 -192.35993225 337.89443665 -192.44876099 336.84194946 C-195.06086669 305.08260033 -196.20873458 272.45044898 -191.42333984 240.84521484 C-190.98316825 237.88687591 -190.60424621 234.9254137 -190.23828125 231.95703125 C-189.13231885 223.11516829 -187.85969118 214.43596001 -185.671875 205.78515625 C-185.02653581 203.11000017 -184.59291064 200.4703054 -184.1875 197.75 C-179.49862813 171.64236144 -165.2982163 145.56343408 -149 125 C-148.24589844 124.0409375 -147.49179687 123.081875 -146.71484375 122.09375 C-136.31895179 109.11225884 -124.40679531 98.39793094 -110 90 C-109.40509766 89.649375 -108.81019531 89.29875 -108.19726562 88.9375 C-92.14714015 79.58980306 -75.42432323 73.93598298 -57.00390625 71.60546875 C-50.0960241 70.63489314 -45.99905777 68.60856751 -41.1875 63.5 C-40.69830078 63.00113281 -40.20910156 62.50226563 -39.70507812 61.98828125 C-37.02562823 59.2358874 -37.02562823 59.2358874 -35 56 C-34.34 56 -33.68 56 -33 56 C-32.60276733 55.11163452 -32.60276733 55.11163452 -32.19750977 54.20532227 C-30.96039638 51.92706637 -29.70402423 50.50187465 -27.83984375 48.71484375 C-27.2152124 48.10688965 -26.59058105 47.49893555 -25.94702148 46.87255859 C-24.95230835 45.91470459 -24.95230835 45.91470459 -23.9375 44.9375 C-18.54800024 39.66671169 -13.5995362 34.36994324 -9.02734375 28.3671875 C-7 26 -7 26 -1 21 C-0.67 14.07 -0.34 7.14 0 0 Z " fill="#D9D7CF" transform="translate(760,267)"/>
<path d="M0 0 C2.57876935 0.34848234 4.50123403 0.63551717 6.625 2.1875 C8.47580998 4.62720406 9.64878036 7.24751554 11 10 C13.93476604 15.15721022 17.09489517 20.16692013 20.33007812 25.13916016 C23.97703118 30.7450567 27.40351608 36.3727783 30.53515625 42.2890625 C32.13183673 45.24398584 33.83943749 48.11711262 35.5625 51 C44 65.3625 44 65.3625 44 70 C44.66 70 45.32 70 46 70 C46.44730469 71.0621875 46.89460938 72.124375 47.35546875 73.21875 C51.49444089 82.99478398 51.49444089 82.99478398 56.81640625 92.15625 C60.63599664 98.106239 63.29478331 104.63621275 65.8203125 111.2109375 C67.80771458 115.90962984 70.22939555 120.38847645 72.609375 124.8984375 C74 128 74 128 74 132 C74.66 132 75.32 132 76 132 C76.391875 133.216875 76.78375 134.43375 77.1875 135.6875 C80.05679236 144.28184268 83.35299249 152.69843504 87.09375 160.94921875 C89.5516741 166.51133147 91.33051776 172.15681217 93 178 C93.53139192 179.42055266 94.0732915 180.83721376 94.625 182.25 C96 186 96 186 96 189 C100.00931912 189.43936395 100.00931912 189.43936395 102.3046875 186.98046875 C103.15289063 186.05878906 104.00109375 185.13710938 104.875 184.1875 C109.08519988 179.75789022 113.48700766 175.81301915 118.3125 172.0625 C118.88661621 171.61479248 119.46073242 171.16708496 120.05224609 170.70581055 C123.60284926 167.9773062 127.24722954 165.44678569 131 163 C131.72445312 162.52175781 132.44890625 162.04351563 133.1953125 161.55078125 C133.83210937 161.14214844 134.46890625 160.73351562 135.125 160.3125 C135.76695312 159.89613281 136.40890625 159.47976563 137.0703125 159.05078125 C139.04350485 157.97631011 140.80598848 157.44367789 143 157 C143.020625 155.700625 143.04125 154.40125 143.0625 153.0625 C143.07990234 151.96615234 143.07990234 151.96615234 143.09765625 150.84765625 C143.20561184 148.98267859 143.20561184 148.98267859 142 148 C141.57464815 144.94961961 141.50923753 142.04383013 142 139 C144.1875 137.125 144.1875 137.125 147 136 C147.72316406 135.53335938 148.44632813 135.06671875 149.19140625 134.5859375 C152.57740568 132.67395451 156.03475916 131.56508969 159.75 130.5 C160.48645752 130.28641846 161.22291504 130.07283691 161.98168945 129.8527832 C167.33699351 128.35148175 172.71282671 127.16227656 178.1875 126.1875 C178.88133789 126.06375 179.57517578 125.94 180.29003906 125.8125 C184.22171024 125.16073589 188.01952074 124.66237006 192 125 C193.8125 127.375 193.8125 127.375 195 130 C195.33 130.66 195.66 131.32 196 132 C196.039992 133.99960012 196.04346799 136.00047242 196 138 C197.24394531 137.9278125 198.48789062 137.855625 199.76953125 137.78125 C228.81154248 136.13598412 258.2971254 138.38158279 285 151 C288.96900774 152.74347101 292.96653435 154.41105899 297 156 C297 156.66 297 157.32 297 158 C297.72960937 158.10054687 298.45921875 158.20109375 299.2109375 158.3046875 C302.32654084 159.08140654 304.06122134 160.21288414 306.625 162.125 C311.16698632 165.44126287 315.83715983 168.42125175 320.65234375 171.32421875 C323.02112246 173.01507743 324.28885095 174.68434246 326 177 C326.99 177.33 327.98 177.66 329 178 C330.47265625 179.49609375 330.47265625 179.49609375 332.0625 181.4375 C337.22348286 187.52987042 342.96816328 193.03465093 348.671875 198.61328125 C351.21740307 201.22287463 353.07008395 203.91213432 355 207 C355.86625 208.36125 355.86625 208.36125 356.75 209.75 C358 212 358 212 358 214 C358.66 214 359.32 214 360 214 C360.433125 214.9075 360.86625 215.815 361.3125 216.75 C362.81455979 219.87983322 362.81455979 219.87983322 364.5 221.9375 C366.55319894 224.76064854 367.68661225 227.77125511 369 231 C369.45375 232.0725 369.9075 233.145 370.375 234.25 C370.62378906 234.84167969 370.87257813 235.43335938 371.12890625 236.04296875 C371.74132104 237.41884233 372.39956201 238.77477795 373.08984375 240.11328125 C379.25263425 252.45855168 382.65727573 266.77084854 384.56640625 280.390625 C385.19879564 284.19635577 386.2908459 287.8407467 387.4140625 291.52734375 C388 294 388 294 388 299 C398.89 299 409.78 299 421 299 C421 310.55 421 322.1 421 334 C413.08 334 405.16 334 397 334 C398.51343662 344.36704082 400.17299795 354.24089202 403.02734375 364.3125 C404.24111122 368.91409235 405.09182049 373.53781943 405.92358398 378.22021484 C406.83351849 383.28479232 408.02012355 388.23011166 409.31640625 393.20703125 C410.21001133 396.85804629 410.83357304 400.53582396 411.47265625 404.23828125 C412.01760168 407.09218066 412.70524916 409.87611205 413.4375 412.6875 C414.66931729 417.45382822 415.63172939 422.22076835 416.5 427.0625 C417.47828787 432.50458476 418.71433917 437.78292295 420.25 443.09375 C421.50180088 447.9444784 422.30695543 452.87850295 423.15625 457.8125 C423.75592589 461.03728368 424.57137398 464.16241091 425.45703125 467.3203125 C431.4067347 488.69803485 433.56607016 510.35417159 428 532 C427.7834375 532.9590625 427.566875 533.918125 427.34375 534.90625 C425.53716158 542.39068775 422.42714525 549.12817935 419 556 C418.41412109 557.2065625 418.41412109 557.2065625 417.81640625 558.4375 C414.43260304 564.9943505 409.78369626 570.42040281 405 576 C404.41089844 576.71285156 403.82179688 577.42570312 403.21484375 578.16015625 C397.07515692 585.46101317 390.08488319 591.92344544 382 597 C381.154375 597.70125 380.30875 598.4025 379.4375 599.125 C376.01752597 601.75574925 373.32538024 603 369 603 C368.62875 603.804375 368.62875 603.804375 368.25 604.625 C364.63731211 611.48910698 361.0276793 615.41088009 353.703125 618.30078125 C345.07639548 620.82829589 337.95431128 622.52389443 329.6875 618.3125 C325.00637337 614.28455383 320.62537745 609.81841042 319.59375 603.51953125 C319.3730506 597.1468362 320.26605624 593.04953059 324.16796875 587.94140625 C329.02514984 582.7942442 334.21482268 580.56187758 341.1171875 579.359375 C343.08032925 579.07299789 343.08032925 579.07299789 345 578 C347.24867084 577.87026899 349.49912356 577.77060198 351.75 577.6875 C357.5518098 577.32525804 360.64178676 576.76926551 365 573 C365.99 572.67 366.98 572.34 368 572 C369.68997323 570.35697047 371.35216394 568.68528688 373 567 C374.05942273 566.162758 375.12216596 565.32970722 376.1875 564.5 C379.66190274 561.56656786 382.42190943 558.1500728 385.1875 554.5625 C385.60346436 554.02496094 386.01942871 553.48742188 386.44799805 552.93359375 C393.66944205 543.3608811 399.28775428 532.10817727 400 520 C400.66 520 401.32 520 402 520 C402 511.09 402 502.18 402 493 C401.34 493 400.68 493 400 493 C399.72736328 491.47632813 399.72736328 491.47632813 399.44921875 489.921875 C398.11675197 482.58614391 396.63962536 475.36160283 394.75390625 468.14453125 C393.53419127 463.05711903 392.65330269 457.91282035 391.74609375 452.76171875 C391.05756427 449.01948923 391.05756427 449.01948923 390 445.5 C388.93964826 441.78876891 388.23182663 438.11291391 387.5625 434.3125 C386.51170627 428.49091512 385.24193059 422.78543149 383.75 417.05859375 C382.58076359 412.29030151 381.68913344 407.47029396 380.75 402.65234375 C380.08704212 399.423877 379.33065796 396.25101517 378.5 393.0625 C376.93394637 387.01146554 375.82959533 380.91380401 374.74609375 374.76171875 C374.01938 371.09771174 373.02993903 367.5881747 372 364 C371.6547112 362.10986352 371.34090944 360.21363873 371.0625 358.3125 C370.41752045 354.24106657 369.6136054 350.2979413 368.5625 346.3125 C367.34782415 341.6350915 366.42450556 336.95045239 365.625 332.1875 C364.43001575 325.12563864 363.01696399 318.1246729 361.5 311.125 C361.29842285 310.1868042 361.0968457 309.2486084 360.88916016 308.28198242 C359.65040445 302.62897797 358.21120116 297.0621841 356.66064453 291.48730469 C355.83277684 288.37041037 355.24263106 285.2384539 354.6875 282.0625 C350.44503554 258.35919984 350.44503554 258.35919984 339 238 C338.30507833 236.35745788 337.61116106 234.71365195 336.9765625 233.046875 C330.44404164 219.35471128 316.85664619 203.42558988 303.6875 195.96484375 C301.2475799 194.56979684 299.18262417 192.76688623 297 191 C290.64316214 186.24093108 284.24067451 182.26517759 277 179 C276.2678125 178.66355469 275.535625 178.32710937 274.78125 177.98046875 C266.52286268 174.43105913 257.71248701 172.15634688 249 170 C248.35435593 169.83335846 247.70871185 169.66671692 247.04350281 169.49502563 C241.54091414 168.15557946 236.36761596 167.6797853 230.71484375 167.6640625 C229.85548721 167.6574057 228.99613068 167.6507489 228.11073303 167.64389038 C226.30146398 167.63382984 224.49215832 167.6290713 222.68286133 167.62939453 C219.96826074 167.62504924 217.25532669 167.58873675 214.54101562 167.55078125 C201.53671329 167.46738514 190.13691183 169.04460752 178 174 C176.4221875 174.433125 176.4221875 174.433125 174.8125 174.875 C167.54492892 177.01952917 161.23416077 179.65058551 155 184 C154.26652344 184.27714844 153.53304687 184.55429687 152.77734375 184.83984375 C149.20423101 186.33240983 146.11189999 188.32840411 142.875 190.4375 C142.25496094 190.83259766 141.63492188 191.22769531 140.99609375 191.63476562 C138.03087804 193.55099642 135.46924331 195.49040958 133 198 C132.34 198 131.68 198 131 198 C130.79375 198.53109375 130.5875 199.0621875 130.375 199.609375 C128.42038808 203.00773436 125.77876283 205.51055928 123 208.25 C122.4534375 208.80429687 121.906875 209.35859375 121.34375 209.9296875 C117.2533867 214 117.2533867 214 115 214 C114.62875 214.804375 114.62875 214.804375 114.25 215.625 C113 218 113 218 110.8203125 220.4296875 C108.16987972 224.38240487 109.14030051 227.93406141 109.97265625 232.41015625 C110.18792969 233.42980469 110.40320313 234.44945312 110.625 235.5 C110.81707031 236.51964844 111.00914062 237.53929687 111.20703125 238.58984375 C112.1666939 243.54273354 113.37464845 248.22160595 115 253 C115.36233248 255.09616049 115.67209223 257.20187632 115.9375 259.3125 C116.53375808 263.8611956 117.22603578 268.35755572 118.07450867 272.86773682 C119.80706257 282.13000759 120.91702245 291.36271807 121.6875 300.75 C121.78180801 301.87468689 121.78180801 301.87468689 121.87802124 303.02209473 C123.97405 328.45832937 122.95475906 353.60112935 121 379 C120.34 379 119.68 379 119 379 C118.93868896 378.32340332 118.87737793 377.64680664 118.81420898 376.94970703 C118.39386062 372.31744398 117.97087906 367.68553074 117.53515625 363.0546875 C116.7529165 354.55473358 116.03213581 346.06528828 115.6015625 337.5390625 C114.80784276 321.93212727 113.50864567 306.50261961 111.5 291 C111.39231293 290.16202881 111.28462585 289.32405762 111.17367554 288.46069336 C110.1062483 280.2294113 109.01377389 272.06352138 107 264 C106.63068359 262.47439453 106.63068359 262.47439453 106.25390625 260.91796875 C106.02574219 260.01691406 105.79757812 259.11585938 105.5625 258.1875 C104.75411031 254.99497625 103.95200071 251.80208822 103.17578125 248.6015625 C102.91152344 247.51617188 102.64726563 246.43078125 102.375 245.3125 C102.13523437 244.31863281 101.89546875 243.32476563 101.6484375 242.30078125 C101.21777463 240.0548482 101.21777463 240.0548482 100 239 C97.15453259 245.26608248 94.4351356 251.56238697 92 258 C91.57332031 259.11246094 91.14664063 260.22492188 90.70703125 261.37109375 C81.24418062 287.59512261 82.98292514 318.53533758 90.25390625 345.1328125 C91.12587364 348.48372382 91.78363718 351.84991333 92.4375 355.25 C93.72319369 361.86117227 95.30907643 368.34627617 97.03515625 374.85546875 C97.84269943 378.10150756 98.40869072 381.35370692 98.9375 384.65625 C100.00398463 391.27343198 101.4458207 397.77998949 102.9375 404.3125 C104.58053264 411.59055166 106.21128986 418.86120106 107.625 426.1875 C108.73824939 431.93160335 110.12782114 437.56896991 111.59033203 443.23095703 C112.58907042 447.15958436 113.39306497 451.05565459 114 455.0625 C114.89560319 460.95588884 116.47135077 466.58827954 118.05859375 472.328125 C119.1516114 476.59134739 119.84883492 480.84056019 120.5078125 485.1875 C120.99072474 487.94699852 121.66085498 490.55976569 122.4375 493.25 C123.74315822 497.79027883 124.67068477 502.35322784 125.5 507 C126.31525594 511.56118437 127.21176593 516.04485716 128.5 520.5 C129.74871695 524.83492412 130.63940285 529.18899012 131.4375 533.625 C131.8238166 535.70783663 132.21309193 537.79009138 132.60400391 539.87207031 C132.86731722 541.28701409 133.12483884 542.70304833 133.37646484 544.12011719 C136.80713457 563.01706347 147.12207403 582.58153087 163.125 593.8125 C164.74683746 594.87982118 166.37144129 595.94296274 168 597 C168.928125 597.70125 169.85625 598.4025 170.8125 599.125 C181.6596426 605.50567212 195.32486492 609.68157998 208 608 C209.04929687 607.51015625 210.09859375 607.0203125 211.1796875 606.515625 C215.82608635 604.39731162 220.40069115 604.44823946 225.4375 604.4375 C226.79198242 604.38239258 226.79198242 604.38239258 228.17382812 604.32617188 C235.12111034 604.28089632 239.0197737 606.20929605 244 611 C248.51156944 615.97429452 249.37455437 619.81192255 249.26953125 626.37109375 C248.74184053 631.51799023 246.85613814 635.18730339 243.1640625 638.79296875 C236.3033922 644.32619135 229.45462023 644.21904221 220.9375 644.3125 C220.05255859 644.34150391 219.16761719 644.37050781 218.25585938 644.40039062 C212.59791223 644.4555694 210.34727155 643.79671249 206 640 C203.29549984 639.34022709 200.8018601 638.8612309 198.0625 638.5 C184.35911964 636.38235263 171.29558934 632.47136281 159 626 C159 625.34 159 624.68 159 624 C158.29101562 623.91492187 157.58203125 623.82984375 156.8515625 623.7421875 C153.36548488 622.83485223 151.24746237 621.28528162 148.375 619.125 C147.43398438 618.42632813 146.49296875 617.72765625 145.5234375 617.0078125 C143.52253604 615.41576397 141.77196584 613.8284633 140 612 C139.030625 611.21625 138.06125 610.4325 137.0625 609.625 C134.28979982 607.33598954 132.18549806 604.8684662 130 602 C128.6696875 600.5459375 128.6696875 600.5459375 127.3125 599.0625 C111.25412758 580.32095649 104.7847389 557.37590828 100.64453125 533.52734375 C99.87137498 529.29607036 98.82011662 525.17341416 97.7421875 521.01171875 C96.63819981 516.53185293 95.77426478 512.01132936 94.88671875 507.484375 C93.77273423 501.81557804 92.60682846 496.15759944 91.4375 490.5 C91.22754395 489.47293945 91.01758789 488.44587891 90.80126953 487.38769531 C89.723114 482.18357067 88.46865331 477.10968962 87 472 C86.49282767 469.44289555 86.0146692 466.8799014 85.5625 464.3125 C84.49717943 458.40096169 83.19821096 452.60815711 81.68359375 446.79296875 C80.78998867 443.14195371 80.16642696 439.46417604 79.52734375 435.76171875 C78.98239832 432.90781934 78.29475084 430.12388795 77.5625 427.3125 C76.33068271 422.54617178 75.36827061 417.77923165 74.5 412.9375 C73.52267753 407.50078562 72.28923055 402.2271841 70.75390625 396.921875 C69.63176893 392.57286609 68.85660023 388.16806704 68.08984375 383.74414062 C67.53765642 380.6161249 66.88478722 377.6005957 66.00390625 374.546875 C64.67534156 369.85295774 63.9274001 365.12545774 63.14453125 360.31640625 C62.3789545 355.76410578 61.28725298 351.4400171 60 347 C59.46910132 344.44372286 58.9701864 341.88063765 58.5 339.3125 C58.2628125 338.02988281 58.025625 336.74726562 57.78125 335.42578125 C57.59888794 334.38151978 57.59888794 334.38151978 57.4128418 333.31616211 C57.11763019 331.65993946 56.80162075 330.00737002 56.47192383 328.35766602 C54.89637446 320.00098595 54.64311194 311.79909814 54.6875 303.3125 C54.68899048 302.60689941 54.69048096 301.90129883 54.6920166 301.17431641 C54.73259659 290.48300463 55.40007838 280.41074996 58 270 C58.31810995 268.61888089 58.63446774 267.23735722 58.94921875 265.85546875 C62.02620488 252.67145927 66.51943396 240.34954214 72 228 C72.66 228 73.32 228 74 228 C74.12375 227.2575 74.2475 226.515 74.375 225.75 C74.95486701 223.19858515 75.73708739 221.2732427 77 219 C77.66 219 78.32 219 79 219 C79.2784375 217.824375 79.2784375 217.824375 79.5625 216.625 C81.26108472 212.34161244 83.66594661 209.11737171 86.44140625 205.46484375 C88.54019173 202.14571183 89.30338855 199.63602986 88.58203125 195.74609375 C88.32808594 194.98425781 88.07414063 194.22242188 87.8125 193.4375 C87.53019531 192.57125 87.24789062 191.705 86.95703125 190.8125 C86.64121094 189.884375 86.32539062 188.95625 86 188 C85.67386719 187.01 85.34773437 186.02 85.01171875 185 C84.33517524 182.95208451 83.65153048 180.90650182 82.9609375 178.86328125 C82.38842393 177.15737699 81.82695976 175.44760231 81.2890625 173.73046875 C79.43711227 167.85869715 77.00839153 162.28554556 74.55859375 156.640625 C73.04812091 153.11240272 71.59386158 149.57093549 70.1875 146 C69.78917969 144.989375 69.39085937 143.97875 68.98046875 142.9375 C67.98667492 139.96007785 67.42969687 137.10490645 67 134 C66.34 134 65.68 134 65 134 C64.70867187 133.21238281 64.41734375 132.42476562 64.1171875 131.61328125 C61.08633997 123.55961407 57.67382286 115.77775181 54 108 C53.42297483 106.74548251 52.84749772 105.490252 52.2734375 104.234375 C49.1425517 97.41033949 45.87829484 90.74874658 42.06640625 84.26953125 C41 82 41 82 41 78 C40.34 78 39.68 78 39 78 C38.62875 77.071875 38.2575 76.14375 37.875 75.1875 C36.01067043 70.7743527 33.61201136 66.68781517 31.20703125 62.55078125 C30 60 30 60 30 56 C29.34 56 28.68 56 28 56 C27.61328125 55.19175781 27.2265625 54.38351562 26.828125 53.55078125 C26.30734375 52.48214844 25.7865625 51.41351562 25.25 50.3125 C24.73953125 49.25675781 24.2290625 48.20101562 23.703125 47.11328125 C22.04879517 44.08919668 20.15499995 41.67664676 18 39 C17.03149936 37.21465954 16.11631558 35.39959862 15.25 33.5625 C12.90944166 28.75002545 10.41353419 24.07566066 7.75 19.4375 C7.4087207 18.84203369 7.06744141 18.24656738 6.71582031 17.63305664 C5.21318538 15.03110595 3.66750805 12.50126208 2 10 C2 9.01 2 8.02 2 7 C1.34 7 0.68 7 0 7 C0 4.69 0 2.38 0 0 Z " fill="#F0C1C0" transform="translate(455,654)"/>
<path d="M0 0 C57.09 0 114.18 0 173 0 C173 46.2 173 92.4 173 140 C165.97419487 140 160.64350229 139.7715188 154.0625 138.125 C152.49002049 137.75076254 150.91710343 137.37835868 149.34375 137.0078125 C148.59609375 136.83024414 147.8484375 136.65267578 147.078125 136.46972656 C144.42202265 135.86935756 141.75168711 135.4250152 139.0625 135 C134.35114734 134.18471233 130.06594756 132.71212957 125.609375 131 C123.29684719 130.1137618 120.98214453 129.31953912 118.625 128.5625 C108.31703011 125.13259144 98.62633701 120.93771179 88.96875 116.00390625 C83.39276761 113.16261523 77.7020601 110.5776436 72 108 C72 107.34 72 106.68 72 106 C71.44828125 105.89558594 70.8965625 105.79117188 70.328125 105.68359375 C67.50411491 104.85439616 65.27445084 103.5720035 62.75 102.0625 C61.85796875 101.53785156 60.9659375 101.01320313 60.046875 100.47265625 C59.37140625 99.98667969 58.6959375 99.50070312 58 99 C58 98.34 58 97.68 58 97 C57.41677979 96.88390381 56.83355957 96.76780762 56.23266602 96.64819336 C53.84857689 95.95603845 52.3065856 95.04603339 50.27734375 93.62890625 C49.57923584 93.14188232 48.88112793 92.6548584 48.16186523 92.15307617 C47.06080444 91.36574097 47.06080444 91.36574097 45.9375 90.5625 C44.80066772 89.75486206 44.80066772 89.75486206 43.64086914 88.9309082 C37.31534655 84.36677037 31.6461241 79.38351367 26 74 C24.61183591 72.76217859 23.21656879 71.53225088 21.8125 70.3125 C21.1834375 69.75046875 20.554375 69.1884375 19.90625 68.609375 C18.02166399 66.96147992 18.02166399 66.96147992 15.90625 65.578125 C9.06355372 60.62482993 7.58866607 53.98923845 5.59863281 46.19580078 C5.01314259 44.04820736 4.32357965 41.97072874 3.5859375 39.87109375 C-1.13966382 25.52268973 0 16.63478186 0 0 Z " fill="#F1C1C0" transform="translate(760,267)"/>
<path d="M0 0 C-3.74535243 4.57765297 -7.73414196 8.78611548 -11.9375 12.9375 C-15.20112442 16.16155335 -18.41119046 19.36820246 -21.375 22.875 C-29.35471706 32.15554684 -37.7016575 40.63758637 -48.12109375 47.14453125 C-63.19012975 56.85659652 -74.05534708 70.16993321 -83.7265625 85.05078125 C-84.83694576 86.75041697 -86.00747014 88.4104582 -87.1875 90.0625 C-88.99401728 92.99030386 -90.12160213 95.7233754 -91.19140625 98.97265625 C-92 101 -92 101 -93.421875 103.2265625 C-95.44597434 106.78376679 -96.53098434 110.4027084 -97.6875 114.3125 C-97.91244141 115.05306641 -98.13738281 115.79363281 -98.36914062 116.55664062 C-98.91877951 118.36927951 -99.4602267 120.18439889 -100 122 C-100.66 122 -101.32 122 -102 122 C-101.938125 122.99 -101.87625 123.98 -101.8125 125 C-101.80387581 128.64076905 -102.88995947 131.39754392 -104.21362305 134.78271484 C-105.54679495 138.54175465 -106.25960975 142.40072625 -107 146.3125 C-107.16733643 147.17407715 -107.33467285 148.0356543 -107.50708008 148.92333984 C-108.66327562 154.97477588 -109.71406041 161.04161402 -110.6875 167.125 C-110.86635742 168.24128784 -110.86635742 168.24128784 -111.04882812 169.38012695 C-112.6369884 179.67448089 -113.17693793 189.80259654 -113.23828125 200.21875 C-113.24548502 201.22636477 -113.24548502 201.22636477 -113.25283432 202.2543354 C-113.28870149 207.33621629 -113.30434609 212.41800642 -113.3125 217.5 C-113.31488867 218.61686754 -113.31488867 218.61686754 -113.31732559 219.75629807 C-113.35585758 240.93614448 -112.89010669 261.66656423 -109.51708984 282.62597656 C-108.82437223 287.14597535 -108.33836559 291.67938999 -107.84863281 296.22509766 C-106.76226944 306.23516013 -105.11534079 315.9632035 -102.90234375 325.78125 C-102.06163937 329.56399298 -101.48937441 333.34179664 -101 337.1875 C-100.15174858 343.6357121 -98.64002118 349.78554284 -97.00390625 356.06640625 C-96.06872656 359.67076296 -95.26405578 363.29257815 -94.5 366.9375 C-91.42087515 381.54276064 -87.74046922 395.92726695 -83.74365234 410.30615234 C-83.03185523 412.88460584 -82.33549283 415.46667661 -81.64453125 418.05078125 C-79.53083853 425.90541723 -77.34694484 433.55818968 -74 441 C-77.48116415 442.47207123 -80.88960475 443.55300686 -84.5625 444.4375 C-85.60019531 444.69015625 -86.63789062 444.9428125 -87.70703125 445.203125 C-88.79371094 445.46609375 -89.88039063 445.7290625 -91 446 C-93.25044904 446.56070078 -95.50047058 447.12312102 -97.75 447.6875 C-99.5 448.125 -101.25 448.5625 -103 449 C-107.36014214 436.24122342 -111.2092447 423.41709691 -114.42773438 410.31713867 C-115.53819397 405.8045463 -116.70758989 401.31089231 -117.90844727 396.8215332 C-119.8644489 389.50496268 -121.6634309 382.19852111 -123.1875 374.77734375 C-124.00664184 370.96912181 -124.91310439 367.19061299 -125.83666992 363.40673828 C-128.00867671 354.50286944 -129.87730894 345.62157464 -131.3828125 336.58203125 C-131.85733671 333.82798887 -132.39874551 331.14868181 -133.0625 328.4375 C-134.12981861 323.8707761 -134.6274533 319.23951782 -135.16619873 314.58786011 C-135.66914621 310.35411874 -136.29303572 306.16680037 -137.04899597 301.97129822 C-139.06880094 290.68333374 -140.23155273 279.35932722 -141.1875 267.9375 C-141.27371613 266.91596832 -141.35993225 265.89443665 -141.44876099 264.84194946 C-144.06086669 233.08260033 -145.20873458 200.45044898 -140.42333984 168.84521484 C-139.98316825 165.88687591 -139.60424621 162.9254137 -139.23828125 159.95703125 C-138.13231885 151.11516829 -136.85969118 142.43596001 -134.671875 133.78515625 C-134.02653581 131.11000017 -133.59291064 128.4703054 -133.1875 125.75 C-128.49862813 99.64236144 -114.2982163 73.56343408 -98 53 C-97.24589844 52.0409375 -96.49179687 51.081875 -95.71484375 50.09375 C-85.31895179 37.11225884 -73.40679531 26.39793094 -59 18 C-58.40509766 17.649375 -57.81019531 17.29875 -57.19726562 16.9375 C-39.93107127 6.88155667 -20.26388155 -0.79466202 0 0 Z " fill="#F0C1C0" transform="translate(709,339)"/>
<path d="M0 0 C0.40089844 -0.39832031 0.80179688 -0.79664063 1.21484375 -1.20703125 C6.94544224 -6.54779311 12.71410771 -9.01873897 20.5625 -9.4375 C26.20657281 -9.20151089 30.60511145 -7.23775785 34.7265625 -3.38671875 C36.28116843 -1.65980428 37.65522448 0.10642201 39 2 C39.61875 2.86625 40.2375 3.7325 40.875 4.625 C43.78757348 13.36272043 42.63974867 20.97220238 38.625 29.0625 C32.36239053 40.91934928 23.74856677 50.02065229 13 58 C12.17218018 58.63010986 12.17218018 58.63010986 11.32763672 59.27294922 C9.60712539 60.57674777 7.87019443 61.85448259 6.125 63.125 C5.07570313 63.89070312 4.02640625 64.65640625 2.9453125 65.4453125 C0 67 0 67 -2.4765625 67.0390625 C-5.90876109 65.62580426 -8.64119961 63.5673943 -11.5 61.25 C-12.412052 60.51680542 -12.412052 60.51680542 -13.3425293 59.76879883 C-27.02997644 48.55935841 -41.3246424 35.40939374 -43.3359375 16.91015625 C-43.44124347 9.23335085 -42.53862406 3.16572199 -37.45703125 -2.81640625 C-25.5142215 -14.15797615 -11.67977194 -8.29878533 0 0 Z " fill="#EB6A47" transform="translate(716,946)"/>
<path d="M0 0 C0.99 0 1.98 0 3 0 C2.8453125 1.28132813 2.690625 2.56265625 2.53125 3.8828125 C1.73525088 11.85681781 1.67348688 19.86866137 1.5 27.875 C1.22972039 40.07042002 0.77710681 52.23885649 0.13305664 64.42028809 C-0.09493449 68.84059683 -0.29665051 73.2620947 -0.5 77.68359375 C-0.58326157 79.47331063 -0.66659492 81.26302418 -0.75 83.05273438 C-0.87595989 85.7596419 -1.00132813 88.46657089 -1.125 91.17358398 C-1.24817866 93.86450838 -1.37389201 96.55530523 -1.5 99.24609375 C-1.53544922 100.03495468 -1.57089844 100.82381561 -1.60742188 101.63658142 C-1.82360849 106.19904951 -2.12760832 110.74679907 -2.49072266 115.30004883 C-3.00692663 121.8468579 -3.34881035 128.39328358 -3.6484375 134.953125 C-3.76623399 137.43580461 -3.88432824 139.91847011 -4.00268555 142.40112305 C-4.06338226 143.68352875 -4.12407898 144.96593445 -4.18661499 146.28720093 C-5.20795376 167.77171457 -6.36757308 189.23259194 -8.08544922 210.67480469 C-8.20710086 212.20374465 -8.32837585 213.73271465 -8.44921875 215.26171875 C-8.50509155 215.96704742 -8.56096436 216.6723761 -8.61853027 217.39907837 C-8.88895458 220.96866846 -9.0597681 224.50247024 -9.01953125 228.08203125 C-9.00282251 231.43380506 -9.32426413 234.53449816 -9.75883484 237.84690857 C-10.14590879 241.30265484 -10.21439139 244.75214691 -10.28125 248.2265625 C-10.29965942 248.97787445 -10.31806885 249.7291864 -10.33703613 250.50326538 C-10.41480921 253.6797836 -10.48332697 256.85648232 -10.55224609 260.03320312 C-10.60428138 262.36858512 -10.66138303 264.70380634 -10.71875 267.0390625 C-10.73232544 267.74858063 -10.74590088 268.45809875 -10.7598877 269.18911743 C-10.85987466 273.22298894 -11.32796914 277.02884892 -12 281 C-12.13194356 283.40967036 -12.22257438 285.82180841 -12.28125 288.234375 C-12.29965942 288.91244202 -12.31806885 289.59050903 -12.33703613 290.28912354 C-12.39530524 292.44266796 -12.44826066 294.59628948 -12.5 296.75 C-12.71328492 305.54052787 -12.97143062 314.25716023 -14 323 C-17.63 323 -21.26 323 -25 323 C-24.71433087 317.04136454 -24.42230078 311.08306659 -24.125 305.125 C-24.08020508 304.22689606 -24.03541016 303.32879211 -23.98925781 302.4034729 C-23.47323277 292.14919068 -22.89430224 281.91685971 -22 271.6875 C-20.70491974 256.64961601 -20.29441005 241.55821837 -19.78515625 226.47729492 C-19.40347603 215.60673938 -18.78664219 204.81397182 -17.77149963 193.98410034 C-16.59930343 181.16041384 -16.0622832 168.29713947 -15.4375 155.4375 C-15.24954179 151.5878553 -15.06027529 147.73829856 -14.86671448 143.88893127 C-14.74761022 141.51957935 -14.63166574 139.15006576 -14.51939392 136.78038025 C-14.46586258 135.71388748 -14.41233124 134.64739471 -14.35717773 133.54858398 C-14.31213608 132.61868149 -14.26709442 131.68877899 -14.22068787 130.73069763 C-13.98221098 127.77988626 -13.50271502 124.91629654 -13 122 C-12.81492165 119.61151874 -12.66249999 117.22037923 -12.53515625 114.828125 C-12.45785713 113.43708337 -12.38037641 112.04605183 -12.30273438 110.6550293 C-12.26365967 109.93568207 -12.22458496 109.21633484 -12.18432617 108.47518921 C-11.621551 98.19594285 -11.04147773 87.94331659 -9.75244141 77.72509766 C-8.72405724 69.310127 -8.24117291 60.84705196 -7.69726562 52.3894043 C-7.62056641 51.232229 -7.54386719 50.07505371 -7.46484375 48.8828125 C-7.399021 47.84527832 -7.33319824 46.80774414 -7.26538086 45.73876953 C-7 43 -7 43 -6.49560547 41.04711914 C-5.79623599 38.15834424 -5.73914199 35.33066483 -5.60546875 32.36328125 C-5.53650391 31.06326172 -5.46753906 29.76324219 -5.39648438 28.42382812 C-5.28978039 26.37496511 -5.1880893 24.32642124 -5.10131836 22.27661133 C-4.7459405 14.09896082 -4.17493545 7.1669929 0 0 Z " fill="#111058" transform="translate(575,1300)"/>
<path d="M0 0 C18.81 0 37.62 0 57 0 C59.47045105 8.64657866 61.56524809 16.28900625 63 25 C63.99 30.445 63.99 30.445 65 36 C39.92 36 14.84 36 -11 36 C-8.36 31.38 -5.72 26.76 -3 22 C0.98479825 13.97143294 0.98479825 13.97143294 0 0 Z " fill="#DAD6CF" transform="translate(757,952)"/>
<path d="M0 0 C1.06744607 3.2023382 1.0048122 5.27584526 0.875 8.625 C0.83953965 18.47115791 4.09398852 24.64767254 9.57421875 32.71484375 C11 35 11 35 11 37 C-8.8 37 -28.6 37 -49 37 C-49 25.12 -49 13.24 -49 1 C-32.83 0.67 -16.66 0.34 0 0 Z " fill="#DAD6CE" transform="translate(673,951)"/>
<path d="M0 0 C3 1 3 1 4 3 C6.3572679 4.27760321 8.70935444 5.46777105 11.125 6.625 C16.77873672 9.38248564 22.35259726 12.23849243 27.875 15.25 C33.44658889 18.26364101 39.04696437 20.83785746 45 23 C45.58362305 23.22469971 46.16724609 23.44939941 46.76855469 23.6809082 C89.9277347 40.23301411 141.58978456 35.19547046 186.78125 31.5 C187.66876953 31.4278125 188.55628906 31.355625 189.47070312 31.28125 C192.01789109 31.03693607 192.01789109 31.03693607 194.56323242 30.47485352 C196.85398892 30.02845322 198.87977339 29.88457842 201.20703125 29.90234375 C201.95791016 29.90556641 202.70878906 29.90878906 203.48242188 29.91210938 C204.25134766 29.92048828 205.02027344 29.92886719 205.8125 29.9375 C206.99489258 29.94426758 206.99489258 29.94426758 208.20117188 29.95117188 C210.13414761 29.96288688 212.06708393 29.98082002 214 30 C214 30.66 214 31.32 214 32 C214.99 32.33 215.98 32.66 217 33 C210.76586647 36.00246872 204.82509011 38.75120634 198 40 C197.1853125 40.16113281 196.370625 40.32226562 195.53125 40.48828125 C187.71331607 41.86482607 179.84525088 42.49873208 171.9375 43.125 C170.84969238 43.21265625 169.76188477 43.3003125 168.64111328 43.390625 C162.22776106 43.87020026 155.89407017 44.06341497 149.46313477 43.93310547 C146.86274739 43.88444193 146.86274739 43.88444193 144 45 C142.40425049 45.06454603 140.80572413 45.06929692 139.20898438 45.03759766 C137.75232361 45.01229477 137.75232361 45.01229477 136.26623535 44.98648071 C135.21931519 44.9625827 134.17239502 44.93868469 133.09375 44.9140625 C132.01750366 44.89282318 130.94125732 44.87158386 129.83239746 44.84970093 C127.5560169 44.80342984 125.27968904 44.75450085 123.00341797 44.703125 C119.5141082 44.62531461 116.02470787 44.55814884 112.53515625 44.4921875 C110.32550738 44.44595124 108.11587133 44.39909702 105.90625 44.3515625 C104.85932983 44.33171295 103.81240967 44.3118634 102.73376465 44.29141235 C101.27710388 44.25665298 101.27710388 44.25665298 99.79101562 44.22119141 C98.93624634 44.20263092 98.08147705 44.18407043 97.20080566 44.16494751 C95 44 95 44 92 43 C90.5532727 42.82250237 89.10162882 42.68327386 87.6484375 42.5703125 C86.79636719 42.49683594 85.94429688 42.42335938 85.06640625 42.34765625 C83.29604591 42.20119683 81.5252055 42.06041055 79.75390625 41.92578125 C73.77123181 41.39657916 68.62340965 40.05927677 63 38 C60.83543558 37.34715546 58.66895961 36.70059039 56.5 36.0625 C43.18648933 31.9577571 30.4728261 25.31914818 19.04296875 17.36328125 C16.90044726 15.93356806 14.70824482 14.71440513 12.4375 13.5 C9.33695251 11.79688236 6.35011257 10.0101129 3.4375 8 C2.77621094 7.54625 2.11492187 7.0925 1.43359375 6.625 C0 5 0 5 -0.21484375 2.3125 C-0.14394531 1.549375 -0.07304687 0.78625 0 0 Z " fill="#0E0D56" transform="translate(308,1504)"/>
<path d="M0 0 C2.57876935 0.34848234 4.50123403 0.63551717 6.625 2.1875 C8.47580998 4.62720406 9.64878036 7.24751554 11 10 C13.93476604 15.15721022 17.09489517 20.16692013 20.33007812 25.13916016 C23.97703118 30.7450567 27.40351608 36.3727783 30.53515625 42.2890625 C32.13183673 45.24398584 33.83943749 48.11711262 35.5625 51 C44 65.3625 44 65.3625 44 70 C44.66 70 45.32 70 46 70 C46.44730469 71.0621875 46.89460938 72.124375 47.35546875 73.21875 C51.49444089 82.99478398 51.49444089 82.99478398 56.81640625 92.15625 C60.63599664 98.106239 63.29478331 104.63621275 65.8203125 111.2109375 C67.80771458 115.90962984 70.22939555 120.38847645 72.609375 124.8984375 C74 128 74 128 74 132 C74.66 132 75.32 132 76 132 C76.391875 133.216875 76.78375 134.43375 77.1875 135.6875 C80.05679236 144.28184268 83.35299249 152.69843504 87.09375 160.94921875 C89.5516741 166.51133147 91.33051776 172.15681217 93 178 C93.51295129 179.31560046 94.03411422 180.62802221 94.5625 181.9375 C96.12031547 186.11857986 97 189.4957246 97 194 C95.60290855 196.71685311 94.0066079 198.6508005 92 201 C89.36347379 198.71403683 88.44900773 196.91581186 87.5625 193.5625 C86.18191065 188.6039435 84.60892609 183.73909712 82.9609375 178.86328125 C82.38842393 177.15737699 81.82695976 175.44760231 81.2890625 173.73046875 C79.43711227 167.85869715 77.00839153 162.28554556 74.55859375 156.640625 C73.04812091 153.11240272 71.59386158 149.57093549 70.1875 146 C69.78917969 144.989375 69.39085937 143.97875 68.98046875 142.9375 C67.98667492 139.96007785 67.42969687 137.10490645 67 134 C66.34 134 65.68 134 65 134 C64.70867187 133.21238281 64.41734375 132.42476562 64.1171875 131.61328125 C61.08633997 123.55961407 57.67382286 115.77775181 54 108 C53.42297483 106.74548251 52.84749772 105.490252 52.2734375 104.234375 C49.1425517 97.41033949 45.87829484 90.74874658 42.06640625 84.26953125 C41 82 41 82 41 78 C40.34 78 39.68 78 39 78 C38.62875 77.071875 38.2575 76.14375 37.875 75.1875 C36.01067043 70.7743527 33.61201136 66.68781517 31.20703125 62.55078125 C30 60 30 60 30 56 C29.34 56 28.68 56 28 56 C27.61328125 55.19175781 27.2265625 54.38351562 26.828125 53.55078125 C26.30734375 52.48214844 25.7865625 51.41351562 25.25 50.3125 C24.73953125 49.25675781 24.2290625 48.20101562 23.703125 47.11328125 C22.04879517 44.08919668 20.15499995 41.67664676 18 39 C17.03149936 37.21465954 16.11631558 35.39959862 15.25 33.5625 C12.90944166 28.75002545 10.41353419 24.07566066 7.75 19.4375 C7.4087207 18.84203369 7.06744141 18.24656738 6.71582031 17.63305664 C5.21318538 15.03110595 3.66750805 12.50126208 2 10 C2 9.01 2 8.02 2 7 C1.34 7 0.68 7 0 7 C0 4.69 0 2.38 0 0 Z " fill="#110F58" transform="translate(455,654)"/>
<path d="M0 0 C0.804375 0.763125 1.60875 1.52625 2.4375 2.3125 C3.365625 3.116875 4.29375 3.92125 5.25 4.75 C9.20445933 9.38236664 8.89842523 15.40432704 8.84765625 21.30078125 C8.19496499 26.09339994 5.97122044 29.11324693 2.4375 32.3125 C-4.82335261 37.71237778 -13.93106139 40.90742706 -23.0625 40.3125 C-30.27028687 39.12103278 -34.35065341 34.92829545 -38.5625 29.3125 C-41.41168384 24.52707503 -41.38314417 19.7272861 -40.5625 14.3125 C-37.78003025 7.652986 -33.11839814 3.19661046 -26.5625 0.3125 C-18.57096811 -2.62442661 -7.73232094 -3.66267834 0 0 Z " fill="#EB6B48" transform="translate(815.5625,1234.6875)"/>
<path d="M0 0 C0.89396484 -0.03222656 1.78792969 -0.06445312 2.70898438 -0.09765625 C9.59683374 -0.10773357 13.49550227 1.89065548 18.4375 6.625 C22.94906944 11.59929452 23.81205437 15.43692255 23.70703125 21.99609375 C23.17934053 27.14299023 21.29363814 30.81230339 17.6015625 34.41796875 C10.82905697 39.88008528 3.98201058 39.88109895 -4.4375 40.0625 C-5.29730469 40.10826172 -6.15710938 40.15402344 -7.04296875 40.20117188 C-12.97631726 40.30471286 -16.42186217 39.13868022 -20.94018555 35.24487305 C-24.91971787 31.27132949 -25.95910242 28.15635025 -26.13305664 22.49487305 C-26.09208632 11.07905124 -26.09208632 11.07905124 -23.125 7.3125 C-16.11961333 1.57773969 -8.89474023 -0.06440797 0 0 Z " fill="#EB6A48" transform="translate(680.5625,1258.375)"/>
<path d="M0 0 C3.21566181 3.67504206 4.13678751 8.29156824 5 13 C5.17917969 13.67546875 5.35835937 14.3509375 5.54296875 15.046875 C5.93754193 17.44216633 5.90201145 18.73586014 5 21 C-2.11755097 28.16298215 -13.08097958 29.84131059 -22.54492188 31.95947266 C-27.7928679 33.1349519 -32.24547589 34.3936495 -37 37 C-40.1875 37.4375 -40.1875 37.4375 -43 37 C-46.27585361 34.20945804 -47.13432187 29.92435129 -48.3515625 25.92578125 C-48.83573907 24.01609662 -48.83573907 24.01609662 -50 23 C-50.42535185 19.94961961 -50.49076247 17.04383013 -50 14 C-47.8125 12.125 -47.8125 12.125 -45 11 C-43.91525391 10.30003906 -43.91525391 10.30003906 -42.80859375 9.5859375 C-39.42259432 7.67395451 -35.96524084 6.56508969 -32.25 5.5 C-31.51354248 5.28641846 -30.77708496 5.07283691 -30.01831055 4.8527832 C-24.66300649 3.35148175 -19.28717329 2.16227656 -13.8125 1.1875 C-13.11866211 1.06375 -12.42482422 0.94 -11.70996094 0.8125 C-7.77670474 0.16047313 -3.98356639 -0.30277479 0 0 Z " fill="#EB6B49" transform="translate(647,779)"/>
<path d="M0 0 C0.66 0 1.32 0 2 0 C2.11069824 0.60473145 2.22139648 1.20946289 2.33544922 1.83251953 C2.84419198 4.59751792 3.35953807 7.36124668 3.875 10.125 C4.04902344 11.07632813 4.22304688 12.02765625 4.40234375 13.0078125 C5.30684532 17.83182087 6.41390272 22.34878646 8 27 C8.36233248 29.09616049 8.67209223 31.20187632 8.9375 33.3125 C9.53375808 37.8611956 10.22603578 42.35755572 11.07450867 46.86773682 C12.80706257 56.13000759 13.91702245 65.36271807 14.6875 74.75 C14.75037201 75.49979126 14.81324402 76.24958252 14.87802124 77.02209473 C16.97405 102.45832937 15.95475906 127.60112935 14 153 C13.34 153 12.68 153 12 153 C11.93868896 152.32340332 11.87737793 151.64680664 11.81420898 150.94970703 C11.39386062 146.31744398 10.97087906 141.68553074 10.53515625 137.0546875 C9.7529165 128.55473358 9.03213581 120.06528828 8.6015625 111.5390625 C7.80784276 95.93212727 6.50864567 80.50261961 4.5 65 C4.39231293 64.16202881 4.28462585 63.32405762 4.17367554 62.46069336 C3.10627156 54.2295907 2.01571964 46.06287858 0 38 C-0.38671875 36.4221875 -0.38671875 36.4221875 -0.78125 34.8125 C-1.0184375 33.884375 -1.255625 32.95625 -1.5 32 C-1.75394531 30.98164062 -2.00789062 29.96328125 -2.26953125 28.9140625 C-2.7153614 27.13551013 -3.16909669 25.35888496 -3.63671875 23.5859375 C-5.1409265 17.54777024 -6.75084572 10.64488329 -3.94921875 4.8125 C-2.625 2.875 -2.625 2.875 0 0 Z " fill="#131259" transform="translate(562,880)"/>
<path d="M0 0 C10.89 0 21.78 0 33 0 C33 11.55 33 23.1 33 35 C25.08 35 17.16 35 9 35 C8.67 35.99 8.34 36.98 8 38 C4.48620413 25.42524827 1.62284797 12.98278373 0 0 Z " fill="#DAD6CF" transform="translate(843,953)"/>
<path d="M0 0 C0.66 0 1.32 0 2 0 C2.33 0.99 2.66 1.98 3 3 C4.63603974 4.69674086 6.30864609 6.35839179 8 8 C8.91790239 9.00876746 9.82656095 10.02601113 10.7265625 11.05078125 C16.92744501 18.05727764 23.14611929 23.81572366 31 29 C31.73605469 29.52980469 32.47210937 30.05960937 33.23046875 30.60546875 C40.64407875 35.85846381 48.9294947 39.55811874 57.4375 42.6875 C61 44 61 44 64.0625 45.625 C67.00770712 47.17904931 67.00770712 47.17904931 70.5625 47.5 C74 48 74 48 76.3203125 49.41796875 C93.57515238 59.60486401 124.29306702 61.27861128 144 63 C144 65.64 144 68.28 144 71 C140.66462874 70.68234559 137.33252704 70.34582828 134 70 C133.35160156 69.93554688 132.70320312 69.87109375 132.03515625 69.8046875 C124.01729541 68.99842216 116.35170113 68.06728411 108.61328125 65.71875 C105.71358031 64.92122388 102.84792774 64.44874381 99.875 64 C95.52109125 63.31812982 91.55435668 62.34206841 87.4140625 60.8515625 C84.44841562 59.80542817 81.44857725 58.90678418 78.4375 58 C71.31913002 55.81482596 64.61900522 53.38603583 57.99609375 49.96484375 C56.04553887 49.02201194 54.10575082 48.2786493 52.0625 47.5625 C33.02997193 40.63821449 9.72185626 24.81141996 0.6875 6.3125 C0 4 0 4 0 0 Z " fill="#14135A" transform="translate(789,387)"/>
<path d="M0 0 C0.66 0.33 1.32 0.66 2 1 C1.34197388 1.64231567 1.34197388 1.64231567 0.6706543 2.29760742 C-1.32906009 4.25554541 -3.32080319 6.22140811 -5.3125 8.1875 C-6.00279297 8.86103516 -6.69308594 9.53457031 -7.40429688 10.22851562 C-10.85863859 13.64948206 -13.56871678 16.76696224 -16 21 C-18.19921875 23.2109375 -18.19921875 23.2109375 -20.6875 25.375 C-21.57050781 26.14714844 -22.45351563 26.91929687 -23.36328125 27.71484375 C-24.23339844 28.46894531 -25.10351562 29.22304688 -26 30 C-26.75667969 30.68191406 -27.51335938 31.36382812 -28.29296875 32.06640625 C-29.32357422 32.99259766 -29.32357422 32.99259766 -30.375 33.9375 C-30.98085938 34.48277344 -31.58671875 35.02804687 -32.2109375 35.58984375 C-34.0524655 37.04135381 -35.87138806 38.02946548 -38 39 C-37.43168959 34.87227175 -35.06156942 32.05593162 -32.5625 28.875 C-32.11293945 28.30096436 -31.66337891 27.72692871 -31.20019531 27.13549805 C-22.24824434 15.89870683 -11.85433615 7.90289077 0 0 Z " fill="#FCFAFA" transform="translate(667,381)"/>
<path d="M0 0 C0.99 0 1.98 0 3 0 C2.84660156 1.25554687 2.69320312 2.51109375 2.53515625 3.8046875 C1.69380693 12.21818068 1.63468725 20.67733713 1.4375 29.125 C1.39422119 30.8619877 1.35060422 32.598967 1.30664062 34.3359375 C1.20052656 38.55720499 1.09899471 42.7785598 1 47 C0.67 47 0.34 47 0 47 C-0.33 35.12 -0.66 23.24 -1 11 C-1.99 12.32 -2.98 13.64 -4 15 C-3.63495936 9.33557626 -2.9445679 4.99296295 0 0 Z " fill="#454479" transform="translate(575,1300)"/>
<path d="M0 0 C0.99 0 1.98 0 3 0 C2.67 3.3 2.34 6.6 2 10 C1.67 10 1.34 10 1 10 C1 8.02 1 6.04 1 4 C0.34 3.67 -0.32 3.34 -1 3 C-0.67 2.01 -0.34 1.02 0 0 Z " fill="#424077" transform="translate(575,1300)"/>
</svg>
