<?xml version="1.0" encoding="UTF-8"?>
<svg version="1.1" xmlns="http://www.w3.org/2000/svg" width="612" height="612">
<path d="M0 0 C201.96 0 403.92 0 612 0 C612 201.96 612 403.92 612 612 C410.04 612 208.08 612 0 612 C0 410.04 0 208.08 0 0 Z " fill="#FEFEFE" transform="translate(0,0)"/>
<path d="M0 0 C2.95554039 1.0037816 5.59700171 2.40880279 8.3125 3.9375 C9.0537915 4.34355469 9.79508301 4.74960938 10.55883789 5.16796875 C16.97291416 8.78255418 22.55081195 13.04931811 28 18 C28.83789062 18.7425 29.67578125 19.485 30.5390625 20.25 C33.04265292 22.48230353 35.52158723 24.73981225 38 27 C39.77028857 28.5839424 41.54111532 30.16728352 43.3125 31.75 C49.10555237 36.97634073 54.39177498 42.49048704 59.58984375 48.3046875 C62.69506381 51.77729988 65.82653035 55.22595785 68.95703125 58.67578125 C75 65.55066922 75 65.55066922 75 68 C75.66 68 76.32 68 77 68 C77.268125 68.804375 77.53625 69.60875 77.8125 70.4375 C78.204375 71.283125 78.59625 72.12875 79 73 C79.99 73.33 80.98 73.66 82 74 C91 84.03125 91 84.03125 91 89 C91.66 89 92.32 89 93 89 C97.96029796 94.89534263 102.07857015 101.53821224 106.15625 108.0625 C107.83861009 110.74287031 109.55814406 113.39617848 111.2878418 116.04614258 C115.46424873 122.46285613 119.37040541 128.98772588 123.109375 135.66796875 C124.26981722 137.71312828 125.46121611 139.74154242 126.703125 141.73828125 C133.00477002 151.91219879 137.47935709 162.94873909 142 174 C142.37866211 174.92167969 142.75732422 175.84335938 143.14746094 176.79296875 C156.72688891 210.37207163 158.94266963 245.7015932 151 281 C168.56989697 281.42224919 183.01417013 280.78438576 199.453125 273.98828125 C202 273 202 273 204 273 C204.04898437 271.87980469 204.09796875 270.75960938 204.1484375 269.60546875 C204.22347856 268.13278797 204.29902582 266.66013293 204.375 265.1875 C204.4059375 264.44951172 204.436875 263.71152344 204.46875 262.95117188 C204.67346148 259.18106885 204.86433827 257.20349259 207 254 C210.125 253.8125 210.125 253.8125 213 254 C215.0326419 258.0652838 214.17904475 262.75169592 213 267 C213.51949219 266.61585938 214.03898437 266.23171875 214.57421875 265.8359375 C216.67904868 264.3808425 218.6772122 263.07767049 221 262 C224 262.6875 224 262.6875 226 264 C225.69381595 267.67420866 225.24228216 268.78135513 222.4375 271.3125 C221.2309375 272.1478125 221.2309375 272.1478125 220 273 C220.62648438 273.03738281 221.25296875 273.07476562 221.8984375 273.11328125 C223.12433594 273.21189453 223.12433594 273.21189453 224.375 273.3125 C225.18710937 273.37050781 225.99921875 273.42851562 226.8359375 273.48828125 C229 274 229 274 231 277 C230.48275862 280.51724138 230.48275862 280.51724138 229 282 C227.37765484 282.10177073 225.75052758 282.12960489 224.125 282.125 C223.1246875 282.12371094 222.124375 282.12242187 221.09375 282.12109375 C218.20175958 282.00789716 215.48124296 281.62853752 212.625 281.1875 C206.78947702 280.58153531 202.58845912 282.38276423 197.27734375 284.65625 C186.72279472 288.9837409 175.80275205 290.17296076 164.5 290.125 C163.13294922 290.13080078 163.13294922 290.13080078 161.73828125 290.13671875 C156.71740838 290.12947362 151.94849492 289.85647028 147 289 C146.835 290.155 146.67 291.31 146.5 292.5 C143.1281317 307.66145037 132.67679964 322.23562111 123 334 C122.45730469 334.66644531 121.91460937 335.33289063 121.35546875 336.01953125 C107.24236515 352.77677603 86.74913227 365.98094041 66 373 C65.01 373 64.02 373 63 373 C63.01047363 373.70157227 63.02094727 374.40314453 63.03173828 375.12597656 C63.26307767 393.20558915 62.53767619 410.98166061 61 429 C60.81087246 431.27080625 60.62205664 433.54163849 60.43359375 435.8125 C60.28916956 437.54167561 60.14468036 439.2708458 60 441 C60.99 440.67 61.98 440.34 63 440 C70.74220033 439.26960374 77.7003051 441.53375301 85 444 C86 445 86 445 86.125 448 C86 451 86 451 85 452 C81.09467317 451.62206515 77.7184246 451.23947487 74 450 C66.28134245 449.63192937 58.66054377 450.07209767 51 451 C50.88669422 444.24571642 51.22207911 437.65669329 51.875 430.9375 C53.53610778 412.66832917 54.17752596 394.32186539 55 376 C53.31583984 376.41572266 53.31583984 376.41572266 51.59765625 376.83984375 C32.09163433 381.59008829 2.76493115 386.38246558 -16 377 C-15.73408271 383.69964971 -15.46747505 390.39927172 -15.20043945 397.09887695 C-15.11011999 399.36677462 -15.01994517 401.63467806 -14.92993164 403.90258789 C-14.84245343 406.10615902 -14.75475571 408.30972144 -14.6668396 410.51327515 C-14.57905484 412.7152587 -14.49183554 414.91726486 -14.40518188 417.11929321 C-14.18458835 422.66398162 -13.94624928 428.20704039 -13.67529297 433.74951172 C-13.59884804 435.35088234 -13.59884804 435.35088234 -13.52085876 436.98460388 C-13.42287122 439.01628546 -13.32063449 441.04776768 -13.21363831 443.07899475 C-13.17077194 443.97710373 -13.12790558 444.87521271 -13.08374023 445.80053711 C-13.04337143 446.59060654 -13.00300262 447.38067596 -12.96141052 448.19468689 C-13 450 -13 450 -14 451 C-17.14711179 451.2145758 -19.44617664 451.23318878 -22.375 450 C-28.6700461 447.6018872 -33.90881112 449.11643861 -39.94921875 451.328125 C-42.38947888 452.1276007 -44.45127773 452.31859028 -47 452 C-48 451 -48 451 -48.0625 447.9375 C-48.041875 446.968125 -48.02125 445.99875 -48 445 C-46.41800369 444.35089846 -44.83434276 443.70585306 -43.25 443.0625 C-42.36828125 442.70285156 -41.4865625 442.34320313 -40.578125 441.97265625 C-36.74578731 440.52681976 -33.5374907 439.86112524 -29.4375 439.875 C-28.29087891 439.87113281 -28.29087891 439.87113281 -27.12109375 439.8671875 C-25 440 -25 440 -22 441 C-22.09087891 439.82308594 -22.18175781 438.64617187 -22.27539062 437.43359375 C-25.57422099 394.35294394 -25.57422099 394.35294394 -25 374 C-25.6297876 373.82694336 -26.2595752 373.65388672 -26.90844727 373.47558594 C-32.55424128 371.8632606 -37.72676284 369.94653005 -42.9375 367.25 C-43.61554688 366.90437012 -44.29359375 366.55874023 -44.9921875 366.20263672 C-50.83013935 363.18019993 -56.81630949 360.06348621 -62 356 C-62 355.34 -62 354.68 -62 354 C-62.71929687 353.75765625 -63.43859375 353.5153125 -64.1796875 353.265625 C-82.45383845 345.06503648 -96.93855591 318.2268 -103.88964844 300.76513672 C-109 287.28340815 -109 287.28340815 -109 283 C-109.7528125 283.04640625 -110.505625 283.0928125 -111.28125 283.140625 C-130.90036662 283.80729401 -150.58783612 275.88628574 -166.2734375 264.32421875 C-170.42482286 262.30800151 -174.62672948 262.24675996 -179.1875 261.9375 C-180.99408676 261.80891278 -182.8001433 261.67256919 -184.60546875 261.52734375 C-185.40106201 261.47312256 -186.19665527 261.41890137 -187.01635742 261.36303711 C-189 261 -189 261 -191 259 C-190.44444444 254.44444444 -190.44444444 254.44444444 -189 253 C-187.14227838 253.08984301 -185.28752015 253.24611861 -183.4375 253.4375 C-182.42558594 253.53933594 -181.41367188 253.64117187 -180.37109375 253.74609375 C-179.58863281 253.82988281 -178.80617188 253.91367187 -178 254 C-178 253.34 -178 252.68 -178 252 C-178.66 252 -179.32 252 -180 252 C-181.6875 250.3125 -181.6875 250.3125 -183 248 C-182.6875 245.25 -182.6875 245.25 -182 243 C-179.8125 242.1875 -179.8125 242.1875 -177 242 C-174.1875 244.4375 -174.1875 244.4375 -172 247 C-171.01 243.7 -170.02 240.4 -169 237 C-167.00045254 236.95745644 -164.99958364 236.95919217 -163 237 C-162.67 237.33 -162.34 237.66 -162 238 C-162.117938 240.06180896 -162.23825542 242.12351851 -162.37255859 244.18432617 C-162.94729704 251.57466793 -162.94729704 251.57466793 -160.4921875 258.28125 C-158.07421689 259.88728214 -155.6961877 260.92225559 -153 262 C-150.74900075 263.20647082 -148.49906723 264.41493139 -146.25 265.625 C-135.21799556 271.11277598 -124.19137059 273.61087831 -112 275 C-112.2165625 274.10667969 -112.433125 273.21335937 -112.65625 272.29296875 C-117.21685761 251.09844376 -118.08222155 224.6381182 -111 204 C-110.76442383 203.29907227 -110.52884766 202.59814453 -110.28613281 201.87597656 C-108.67805179 197.18206162 -106.88795028 192.5879778 -105 188 C-104.68417969 187.19691406 -104.36835938 186.39382812 -104.04296875 185.56640625 C-99.48983835 174.56820543 -92.87862597 164.27768504 -86.625 154.1875 C-86.20847168 153.51195068 -85.79194336 152.83640137 -85.36279297 152.14038086 C-82.35818425 147.35320082 -82.35818425 147.35320082 -80.45581055 145.47729492 C-78.32806911 143.31815298 -77.33393382 140.70839221 -76 138 C-74.81015972 136.26404678 -73.57935523 134.55557469 -72.3125 132.875 C-69.51849356 129.10233069 -66.83043389 125.29682855 -64.25 121.375 C-60.9573306 116.38101026 -57.53304888 111.49672921 -54.0625 106.625 C-46.81131195 96.41523609 -39.89315504 86.06289884 -34 75 C-33.38382813 73.89269531 -32.76765625 72.78539062 -32.1328125 71.64453125 C-27.3569336 62.99844526 -23.41374115 54.26586885 -20 45 C-19.608125 43.948125 -19.21625 42.89625 -18.8125 41.8125 C-15.12751467 31.40783555 -13.83337284 21.2269152 -13.44140625 10.2265625 C-12.94533782 6.600434 -11.87719103 4.12711429 -10 1 C-6.76745722 -0.61627139 -3.50540183 -0.43539164 0 0 Z " fill="#EC1B24" transform="translate(286,63)"/>
<path d="M0 0 C1.99954746 -0.04254356 4.00041636 -0.04080783 6 0 C6.33 0.33 6.66 0.66 7 1 C6.882062 3.06180896 6.76174458 5.12351851 6.62744141 7.18432617 C6.05270296 14.57466793 6.05270296 14.57466793 8.5078125 21.28125 C10.92578311 22.88728214 13.3038123 23.92225559 16 25 C18.25099925 26.20647082 20.50093277 27.41493139 22.75 28.625 C34.1596607 34.29376753 45.45112833 36.68089316 58 38 C58.495 41.96 58.495 41.96 59 46 C39.03364936 47.36134209 18.64669186 39.05915947 2.7265625 27.32421875 C-1.42482286 25.30800151 -5.62672948 25.24675996 -10.1875 24.9375 C-11.99408676 24.80891278 -13.8001433 24.67256919 -15.60546875 24.52734375 C-16.40106201 24.47312256 -17.19665527 24.41890137 -18.01635742 24.36303711 C-20 24 -20 24 -22 22 C-21.44444444 17.44444444 -21.44444444 17.44444444 -20 16 C-18.14227838 16.08984301 -16.28752015 16.24611861 -14.4375 16.4375 C-13.42558594 16.53933594 -12.41367188 16.64117187 -11.37109375 16.74609375 C-10.58863281 16.82988281 -9.80617188 16.91367187 -9 17 C-9 16.34 -9 15.68 -9 15 C-9.66 15 -10.32 15 -11 15 C-12.6875 13.3125 -12.6875 13.3125 -14 11 C-13.6875 8.25 -13.6875 8.25 -13 6 C-10.8125 5.1875 -10.8125 5.1875 -8 5 C-5.1875 7.4375 -5.1875 7.4375 -3 10 C-2.01 6.7 -1.02 3.4 0 0 Z " fill="#272325" transform="translate(117,300)"/>
<path d="M0 0 C3.125 -0.1875 3.125 -0.1875 6 0 C8.0326419 4.0652838 7.17904475 8.75169592 6 13 C6.51949219 12.61585938 7.03898437 12.23171875 7.57421875 11.8359375 C9.67904868 10.3808425 11.6772122 9.07767049 14 8 C17 8.6875 17 8.6875 19 10 C18.69381595 13.67420866 18.24228216 14.78135513 15.4375 17.3125 C14.633125 17.869375 13.82875 18.42625 13 19 C13.62648438 19.03738281 14.25296875 19.07476562 14.8984375 19.11328125 C15.71570313 19.17902344 16.53296875 19.24476563 17.375 19.3125 C18.18710937 19.37050781 18.99921875 19.42851562 19.8359375 19.48828125 C22 20 22 20 24 23 C23.48275862 26.51724138 23.48275862 26.51724138 22 28 C20.37765484 28.10177073 18.75052758 28.12960489 17.125 28.125 C16.1246875 28.12371094 15.124375 28.12242187 14.09375 28.12109375 C11.20175958 28.00789716 8.48124296 27.62853752 5.625 27.1875 C-0.21052298 26.58153531 -4.41154088 28.38276423 -9.72265625 30.65625 C-20.29933077 34.99281262 -31.23695469 36.17282074 -42.5625 36.125 C-43.48224609 36.12886719 -44.40199219 36.13273437 -45.34960938 36.13671875 C-50.01329751 36.13001323 -54.41329728 35.9616049 -59 35 C-58.125 29.25 -58.125 29.25 -57 27 C-56.31599121 27.01571045 -55.63198242 27.0314209 -54.92724609 27.04760742 C-37.68387273 27.39119911 -23.65983897 26.64961635 -7.546875 19.98828125 C-5 19 -5 19 -3 19 C-2.95101562 17.87980469 -2.90203125 16.75960938 -2.8515625 15.60546875 C-2.77652144 14.13278797 -2.70097418 12.66013293 -2.625 11.1875 C-2.57859375 10.08051758 -2.57859375 10.08051758 -2.53125 8.95117188 C-2.32653852 5.18106885 -2.13566173 3.20349259 0 0 Z " fill="#2B2829" transform="translate(493,317)"/>
<path d="M0 0 C0.28772141 18.44072907 -0.43998311 36.62678122 -2 55 C-2.18899799 57.27211913 -2.37780862 59.54425385 -2.56640625 61.81640625 C-2.7108036 63.54428203 -2.85528218 65.27215103 -3 67 C-1.515 66.505 -1.515 66.505 0 66 C7.74220033 65.26960374 14.7003051 67.53375301 22 70 C23 71 23 71 23.125 74 C23 77 23 77 22 78 C18.09467317 77.62206515 14.7184246 77.23947487 11 76 C3.28134245 75.63192937 -4.33945623 76.07209767 -12 77 C-12.11330578 70.24571642 -11.77792089 63.65669329 -11.125 56.9375 C-9.46389222 38.66832917 -8.82247404 20.32186539 -8 2 C-5.09399739 0.74335022 -3.20395416 0 0 0 Z " fill="#2C292A" transform="translate(349,437)"/>
<path d="M0 0 C2.64 0.99 5.28 1.98 8 3 C8.41153055 9.69946957 8.82031397 16.39909981 9.22680664 23.09887695 C9.36476663 25.36682402 9.50341221 27.6347295 9.64282227 29.90258789 C10.38363187 41.96147052 11.08901881 54.02159289 11.66015625 66.08984375 C11.73525673 67.5694735 11.73525673 67.5694735 11.81187439 69.07899475 C11.87224632 70.42615822 11.87224632 70.42615822 11.93383789 71.80053711 C11.97102432 72.59060654 12.00821075 73.38067596 12.04652405 74.19468689 C12 76 12 76 11 77 C7.85288821 77.2145758 5.55382336 77.23318878 2.625 76 C-3.6700461 73.6018872 -8.90881112 75.11643861 -14.94921875 77.328125 C-17.38947888 78.1276007 -19.45127773 78.31859028 -22 78 C-23 77 -23 77 -23.0625 73.9375 C-23.041875 72.968125 -23.02125 71.99875 -23 71 C-21.41800369 70.35089846 -19.83434276 69.70585306 -18.25 69.0625 C-16.92742187 68.52302734 -16.92742187 68.52302734 -15.578125 67.97265625 C-11.74578731 66.52681976 -8.5374907 65.86112524 -4.4375 65.875 C-3.29087891 65.87113281 -3.29087891 65.87113281 -2.12109375 65.8671875 C0 66 0 66 3 67 C2.90912109 65.82308594 2.81824219 64.64617187 2.72460938 63.43359375 C-0.57422099 20.35294394 -0.57422099 20.35294394 0 0 Z " fill="#2B2829" transform="translate(261,437)"/>
<path d="M0 0 C0 0.66 0 1.32 0 2 C0.598125 2.020625 1.19625 2.04125 1.8125 2.0625 C4 3 4 3 5.75 6.0625 C7.64466652 11.05659383 7.69730732 15.90807803 6 21 C1.88553466 24.9054417 -2.18573699 26.3376377 -7.8125 26.375 C-10.88063862 26.26248716 -13.06950869 25.97683044 -16 25 C-16 24.34 -16 23.68 -16 23 C-16.598125 22.731875 -17.19625 22.46375 -17.8125 22.1875 C-21.56716418 20.14925373 -21.56716418 20.14925373 -23 18 C-23.79782899 12.11601123 -22.89599634 8.55292378 -19.47265625 3.69921875 C-14.98318867 -1.48093615 -6.22423224 -3.11211612 0 0 Z " fill="#221E1F" transform="translate(258,262)"/>
<path d="M0 0 C0.89203125 0.01804687 1.7840625 0.03609375 2.703125 0.0546875 C3.71632813 0.08949219 3.71632813 0.08949219 4.75 0.125 C5.08 1.115 5.41 2.105 5.75 3.125 C6.74 3.785 7.73 4.445 8.75 5.125 C7.1 5.455 5.45 5.785 3.75 6.125 C3.75 7.775 3.75 9.425 3.75 11.125 C6.39 11.125 9.03 11.125 11.75 11.125 C12.08 9.805 12.41 8.485 12.75 7.125 C15.75 8.125 15.75 8.125 16.75 10.125 C17.51401136 15.13351891 17.51401136 15.13351891 16.75 18.125 C13.69361154 21.84952919 10.3289442 24.59868527 5.75 26.125 C3.91859259 26.21877689 2.08380013 26.25492957 0.25 26.25 C-1.18859375 26.25386719 -1.18859375 26.25386719 -2.65625 26.2578125 C-6.84934086 26.04310604 -8.04942527 25.34423284 -10.9375 22.1875 C-13.98794651 17.69502424 -14.19557034 13.39069903 -13.25 8.125 C-10.09945859 1.82391718 -6.93287926 -0.18244419 0 0 Z " fill="#271F20" transform="translate(360.25,261.875)"/>
<path d="M0 0 C5.46976755 0.14325876 10.20096123 2.10468084 15.23046875 4.109375 C16.61588867 4.63144531 16.61588867 4.63144531 18.02929688 5.1640625 C22.75074937 6.99961639 26.90153275 8.71041537 30.54296875 12.359375 C31.10546875 14.921875 31.10546875 14.921875 30.54296875 17.359375 C28.49495348 19.29335824 27.21935422 20.29198152 24.38671875 20.57421875 C12.87487647 19.21198408 1.90360187 15.72000812 -6.45703125 7.359375 C-5.96896489 2.4787114 -5.14435399 0.5347803 0 0 Z " fill="#FCB4BE" transform="translate(352.45703125,304.640625)"/>
<path d="M0 0 C0.99 0.66 1.98 1.32 3 2 C3.24857516 5.0450457 3.29620737 6.30262919 2 9 C-6.39017002 16.03315122 -19.01570055 20.69842366 -30 20 C-32.4664769 18.43789797 -32.89160004 17.45768871 -33.5625 14.625 C-32.89351469 11.50306853 -31.69302404 10.16352285 -29.1640625 8.2578125 C-24.40812487 5.49353106 -19.17437404 3.8094817 -14 2 C-13.11957031 1.66484375 -12.23914063 1.3296875 -11.33203125 0.984375 C-4.25055771 -1.62521324 -4.25055771 -1.62521324 0 0 Z " fill="#FCB5BE" transform="translate(262,305)"/>
<path d="M0 0 C1.67542976 0.28604898 3.34385343 0.61781233 5 1 C5.40343144 4.29469006 5.60700853 6.91637736 3.9453125 9.8828125 C-0.33361266 15.22568661 -5.06431264 18.53882758 -11.93359375 19.34375 C-19.62997795 19.57435327 -24.40459943 18.39693372 -30.8125 14.125 C-34.17878602 10.85489358 -34.94945766 8.33937208 -35.125 3.6875 C-35.063125 2.3571875 -35.063125 2.3571875 -35 1 C-33.35 1 -31.7 1 -30 1 C-29.731875 1.928125 -29.46375 2.85625 -29.1875 3.8125 C-27.69898697 7.80798234 -26.50169617 9.18479351 -22.8125 11.1875 C-17.133492 12.82810231 -12.37559606 12.45741534 -7 10 C-6.01 10 -5.02 10 -4 10 C-3.79503906 9.36191406 -3.59007812 8.72382813 -3.37890625 8.06640625 C-2.97478516 6.82697266 -2.97478516 6.82697266 -2.5625 5.5625 C-2.29566406 4.73878906 -2.02882813 3.91507812 -1.75390625 3.06640625 C-1 1 -1 1 0 0 Z " fill="#261F1D" transform="translate(321,294)"/>
<path d="M0 0 C0.33 0 0.66 0 1 0 C1.125 7.625 1.125 7.625 0 11 C-4.11446534 14.9054417 -8.18573699 16.3376377 -13.8125 16.375 C-16.88063862 16.26248716 -19.06950869 15.97683044 -22 15 C-22 14.34 -22 13.68 -22 13 C-22.66 12.67 -23.32 12.34 -24 12 C-24 11.01 -24 10.02 -24 9 C-20.7 9 -17.4 9 -14 9 C-14 8.01 -14 7.02 -14 6 C-9.71 6 -5.42 6 -1 6 C-0.67 4.02 -0.34 2.04 0 0 Z " fill="#2D1E1E" transform="translate(264,272)"/>
<path d="M0 0 C7.77338054 -0.62187044 14.66735969 1.5226222 22 4 C23 5 23 5 23.125 8 C23 11 23 11 22 12 C18.09467317 11.62206515 14.7184246 11.23947487 11 10 C8.94106379 9.77674186 6.87766347 9.59294241 4.8125 9.4375 C3.72582031 9.35371094 2.63914062 9.26992188 1.51953125 9.18359375 C0.68808594 9.12300781 -0.14335937 9.06242188 -1 9 C-1 8.67 -1 8.34 -1 8 C2.3 7.67 5.6 7.34 9 7 C5.37542083 4.28156562 4.19115285 3.58210456 0 3 C0 2.01 0 1.02 0 0 Z " fill="#333233" transform="translate(349,503)"/>
<path d="M0 0 C1.67542976 0.28604898 3.34385343 0.61781233 5 1 C5.40343144 4.29469006 5.60700853 6.91637736 3.9453125 9.8828125 C0.43510562 14.26582758 -3.53078171 17.51085641 -9 19 C-13.02611825 19.30171156 -16.97222474 19.24166652 -21 19 C-19.68 18.34 -18.36 17.68 -17 17 C-17.66 16.34 -18.32 15.68 -19 15 C-16.36 14.67 -13.72 14.34 -11 14 C-11 14.66 -11 15.32 -11 16 C-9.68 16 -8.36 16 -7 16 C-7 14.68 -7 13.36 -7 12 C-7.66 11.67 -8.32 11.34 -9 11 C-7.35 10.67 -5.7 10.34 -4 10 C-3.79503906 9.36191406 -3.59007812 8.72382813 -3.37890625 8.06640625 C-3.10949219 7.24011719 -2.84007812 6.41382813 -2.5625 5.5625 C-2.29566406 4.73878906 -2.02882813 3.91507812 -1.75390625 3.06640625 C-1 1 -1 1 0 0 Z " fill="#311D1D" transform="translate(321,294)"/>
<path d="M0 0 C0.08117951 2.41734542 0.14056926 4.83194949 0.1875 7.25 C0.22520508 8.27287109 0.22520508 8.27287109 0.26367188 9.31640625 C0.30854556 12.39773233 0.20460079 14.61740286 -1.26171875 17.359375 C-3 19 -3 19 -7 21 C-7 14.73 -7 8.46 -7 2 C-2 0 -2 0 0 0 Z " fill="#231E1F" transform="translate(348,437)"/>
<path d="M0 0 C1.77007714 -0.08114106 3.54122098 -0.13925505 5.3125 -0.1875 C6.29863281 -0.22230469 7.28476562 -0.25710938 8.30078125 -0.29296875 C11.41490413 0.04503301 12.0820321 0.62592998 14 3 C14.721875 3.515625 15.44375 4.03125 16.1875 4.5625 C17.0846875 5.2740625 17.0846875 5.2740625 18 6 C18 6.66 18 7.32 18 8 C17.34 8 16.68 8 16 8 C15.67 9.32 15.34 10.64 15 12 C8.84765625 12.87890625 8.84765625 12.87890625 7 13 C6 12 6 12 5.8125 9.6875 C6.0071365 6.89771016 6.66872337 5.41293889 8 3 C8 2.34 8 1.68 8 1 C5.36 1 2.72 1 0 1 C0 0.67 0 0.34 0 0 Z " fill="#472727" transform="translate(357,261)"/>
<path d="M0 0 C0.33 0 0.66 0 1 0 C1.8444678 8.39943866 2.04737719 16.65429022 1.98046875 25.08642578 C1.95119295 31.10626161 2.24768646 37.02179416 3 43 C2.01 43.495 2.01 43.495 1 44 C1 42.68 1 41.36 1 40 C0.34 40 -0.32 40 -1 40 C-1.02477941 35.1070187 -1.04289763 30.2140742 -1.05493164 25.32104492 C-1.05995023 23.65762699 -1.06676652 21.99421344 -1.07543945 20.33081055 C-1.08761357 17.93537307 -1.09325314 15.53999409 -1.09765625 13.14453125 C-1.10281754 12.4047554 -1.10797882 11.66497955 -1.11329651 10.90278625 C-1.11370241 7.13916846 -0.90758309 3.65859619 0 0 Z " fill="#E72831" transform="translate(172,280)"/>
<path d="M0 0 C1.125 3.75 1.125 3.75 0 6 C1.2375 5.773125 2.475 5.54625 3.75 5.3125 C7.68140496 4.81415289 7.68140496 4.81415289 10.25 6.3125 C10.8275 6.869375 11.405 7.42625 12 8 C13.31836295 8.69580267 14.64791086 9.37224433 16 10 C16 10.66 16 11.32 16 12 C8.08 12.495 8.08 12.495 0 13 C-0.84964745 8.75176275 -1.16499805 5.28994923 -1 1 C-0.67 0.67 -0.34 0.34 0 0 Z " fill="#221E20" transform="translate(344,499)"/>
<path d="M0 0 C4.95 0 9.9 0 15 0 C15.33 2.64 15.66 5.28 16 8 C10.39538469 7.57910004 5.27913453 7.08386889 0 5 C0.33 4.01 0.66 3.02 1 2 C0.67 1.34 0.34 0.68 0 0 Z " fill="#221E1E" transform="translate(160,338)"/>
<path d="M0 0 C2.70583756 0.25560029 5.37210774 0.56759978 8.0625 0.9375 C9.20041992 1.08735352 9.20041992 1.08735352 10.36132812 1.24023438 C12.24154246 1.48856457 14.12086128 1.74365751 16 2 C16 2.33 16 2.66 16 3 C13.69 3.33 11.38 3.66 9 4 C9.474375 4.45375 9.94875 4.9075 10.4375 5.375 C12 7 12 7 13 9 C16.02934491 9.65772428 16.02934491 9.65772428 19 10 C19 10.33 19 10.66 19 11 C13.1111566 11.21221057 8.16709687 10.55320433 2.5 9 C1.77296875 8.80921875 1.0459375 8.6184375 0.296875 8.421875 C-1.47106531 7.95662755 -3.23588933 7.47956407 -5 7 C-3.68 6.34 -2.36 5.68 -1 5 C-0.67 5.66 -0.34 6.32 0 7 C3.02934491 7.65772428 3.02934491 7.65772428 6 8 C6 7.34 6 6.68 6 6 C4.68 6 3.36 6 2 6 C1.87625 5.360625 1.7525 4.72125 1.625 4.0625 C1.41875 3.381875 1.2125 2.70125 1 2 C0.34 1.67 -0.32 1.34 -1 1 C-0.67 0.67 -0.34 0.34 0 0 Z " fill="#2F2E2F" transform="translate(153,335)"/>
<path d="M0 0 C0.99 0.66 1.98 1.32 3 2 C2.67 4.31 2.34 6.62 2 9 C1.34 9 0.68 9 0 9 C0 8.34 0 7.68 0 7 C-5.3177215 5.75799248 -10.58201328 4.69165788 -16 4 C-12.01273191 0.01273191 -5.37862737 -2.05653399 0 0 Z " fill="#F8AEB4" transform="translate(262,305)"/>
<path d="M0 0 C0.2475 0.61875 0.495 1.2375 0.75 1.875 C2.20628639 4.35068687 3.37812506 4.95125002 6 6 C6 6.33 6 6.66 6 7 C5.04287109 7.07347656 5.04287109 7.07347656 4.06640625 7.1484375 C3.24011719 7.22320312 2.41382813 7.29796875 1.5625 7.375 C0.73878906 7.44460938 -0.08492188 7.51421875 -0.93359375 7.5859375 C-1.95646484 7.79089844 -1.95646484 7.79089844 -3 8 C-3.33 8.66 -3.66 9.32 -4 10 C-5.32 9.67 -6.64 9.34 -8 9 C-8.66 10.65 -9.32 12.3 -10 14 C-11.32 14 -12.64 14 -14 14 C-14 13.34 -14 12.68 -14 12 C-13.01 12 -12.02 12 -11 12 C-11.99 10.68 -12.98 9.36 -14 8 C-12.35 7.67 -10.7 7.34 -9 7 C-8.67 6.01 -8.34 5.02 -8 4 C-5.67793475 3.29508733 -3.34406932 2.62787571 -1 2 C-0.67 1.34 -0.34 0.68 0 0 Z " fill="#282526" transform="translate(494,333)"/>
<path d="M0 0 C3.3 0.66 6.6 1.32 10 2 C6.25 6.875 6.25 6.875 4 8 C2.0027458 8.12199138 0.00094019 8.17547512 -2 8.1875 C-3.0725 8.20167969 -4.145 8.21585937 -5.25 8.23046875 C-8 8 -8 8 -10 6 C-10 5.01 -10 4.02 -10 3 C-6.7 3 -3.4 3 0 3 C0 2.01 0 1.02 0 0 Z " fill="#241D1D" transform="translate(250,278)"/>
<path d="M0 0 C0.99 0.33 1.98 0.66 3 1 C2.01 2.485 2.01 2.485 1 4 C0.34 4 -0.32 4 -1 4 C-1 4.66 -1 5.32 -1 6 C0.65 6.33 2.3 6.66 4 7 C3.67 7.66 3.34 8.32 3 9 C1.68 9 0.36 9 -1 9 C-1 9.99 -1 10.98 -1 12 C0.32 12.33 1.64 12.66 3 13 C-2.42857143 13.36190476 -2.42857143 13.36190476 -4.875 11.8125 C-6.48241237 9.22278007 -6.64260608 7.99882835 -6 5 C-4.15378897 2.81705865 -2.43606892 1.62404594 0 0 Z " fill="#FAAAB3" transform="translate(235,312)"/>
<path d="M0 0 C0.33 0 0.66 0 1 0 C1 1.65 1 3.3 1 5 C2.98 5 4.96 5 7 5 C7 7.64 7 10.28 7 13 C6.34 13 5.68 13 5 13 C4.67 12.34 4.34 11.68 4 11 C3.34 14.3 2.68 17.6 2 21 C1.67 21 1.34 21 1 21 C0.67 14.07 0.34 7.14 0 0 Z " fill="#342E30" transform="translate(263,483)"/>
<path d="M0 0 C1.32 0.66 2.64 1.32 4 2 C4.25 4.3125 4.25 4.3125 4 7 C1.77509707 9.22490293 0.59838682 9.98277371 -2.578125 10.07421875 C-3.90070313 9.88279297 -3.90070313 9.88279297 -5.25 9.6875 C-6.58804687 9.50767578 -6.58804687 9.50767578 -7.953125 9.32421875 C-8.62859375 9.21722656 -9.3040625 9.11023438 -10 9 C-7 7 -7 7 -4.875 6.5625 C-3.946875 6.2840625 -3.946875 6.2840625 -3 6 C-2.67 5.01 -2.34 4.02 -2 3 C-1.34 2.01 -0.68 1.02 0 0 Z " fill="#F9A9AF" transform="translate(379,315)"/>
<path d="M0 0 C9.41002278 -0.3690205 9.41002278 -0.3690205 14 2 C11.64046906 4.35953094 10.22104383 4.49141413 7 5 C7 5.66 7 6.32 7 7 C3.75791433 6.64950425 2.38472296 6.43778819 0.1875 3.9375 C-0.4003125 2.9784375 -0.4003125 2.9784375 -1 2 C-0.67 1.34 -0.34 0.68 0 0 Z " fill="#302D2E" transform="translate(252,503)"/>
<path d="M0 0 C0.66 1.32 1.32 2.64 2 4 C1.01 4.495 1.01 4.495 0 5 C0 5.99 0 6.98 0 8 C-0.99 8.495 -0.99 8.495 -2 9 C-2.66 10.010625 -3.32 11.02125 -4 12.0625 C-4.66 13.031875 -5.32 14.00125 -6 15 C-6.66 15 -7.32 15 -8 15 C-8.66 16.32 -9.32 17.64 -10 19 C-10.99 18.67 -11.98 18.34 -13 18 C-12.31292969 17.11957031 -11.62585938 16.23914063 -10.91796875 15.33203125 C-10.00766946 14.15896515 -9.0975212 12.98578185 -8.1875 11.8125 C-7.73568359 11.23435547 -7.28386719 10.65621094 -6.81835938 10.06054688 C-4.30818834 6.81747919 -2.02756611 3.57686912 0 0 Z " fill="#F8E0DE" transform="translate(421,379)"/>
<path d="M0 0 C2.01822917 0.06510417 4.03645833 0.13020833 6.0546875 0.1953125 C6.0546875 0.5253125 6.0546875 0.8553125 6.0546875 1.1953125 C4.0746875 1.5253125 2.0946875 1.8553125 0.0546875 2.1953125 C0.2403125 2.8140625 0.4259375 3.4328125 0.6171875 4.0703125 C1.0546875 6.1953125 1.0546875 6.1953125 0.0546875 8.1953125 C1.0446875 8.5253125 2.0346875 8.8553125 3.0546875 9.1953125 C3.7421875 11.2578125 3.7421875 11.2578125 4.0546875 13.1953125 C0.16393296 11.89839432 -2.46993993 10.52754481 -4.9453125 7.1953125 C-4.77259011 3.56814227 -4.12197865 0.41385328 0 0 Z " fill="#FAA9AE" transform="translate(350.9453125,304.8046875)"/>
<path d="M0 0 C2 2 2 2 2.046875 4.21484375 C1.3206771 10.8748429 0.30911944 17.42898302 -1 24 C-1.33 24 -1.66 24 -2 24 C-2 22.35 -2 20.7 -2 19 C-2.66 19 -3.32 19 -4 19 C-4 18.01 -4 17.02 -4 16 C-3.34 16 -2.68 16 -2 16 C-2.04125 14.845 -2.0825 13.69 -2.125 12.5 C-2.14087433 8.05518699 -1.21793105 4.26275869 0 0 Z " fill="#EB2C35" transform="translate(438,320)"/>
<path d="M0 0 C2.88849797 0.13822068 4.12197629 1.22040253 6.24487305 3.10742188 C-4.44732727 3.30301091 -15.08311904 2.69796777 -25.75512695 2.10742188 C-25.75512695 2.76742188 -25.75512695 3.42742187 -25.75512695 4.10742188 C-27.07512695 3.77742188 -28.39512695 3.44742187 -29.75512695 3.10742188 C-29.75512695 2.44742187 -29.75512695 1.78742188 -29.75512695 1.10742188 C-25.35935055 0.93923098 -20.96349742 0.77313477 -16.56762695 0.60742188 C-15.32174805 0.55972656 -14.07586914 0.51203125 -12.79223633 0.46289062 C-11.59018555 0.41777344 -10.38813477 0.37265625 -9.1496582 0.32617188 C-8.04468994 0.28427734 -6.93972168 0.24238281 -5.80126953 0.19921875 C-3.86725113 0.14093624 -1.93342734 0.07538396 0 0 Z " fill="#F5FEF6" transform="translate(317.755126953125,442.892578125)"/>
<path d="M0 0 C2.625 0.375 2.625 0.375 5 1 C5.625 3.375 5.625 3.375 6 6 C5.34 6.66 4.68 7.32 4 8 C1.375 7.625 1.375 7.625 -1 7 C-1.625 4.625 -1.625 4.625 -2 2 C-1.34 1.34 -0.68 0.68 0 0 Z " fill="#E7E7E8" transform="translate(254,266)"/>
<path d="M0 0 C0.33 0 0.66 0 1 0 C1 2.64 1 5.28 1 8 C-2.81756824 9.37432457 -6.07255329 8.67975039 -10 8 C-9.67 7.01 -9.34 6.02 -9 5 C-6.68895182 3.94952356 -4.35416349 2.94992562 -2 2 C-1.34 1.34 -0.68 0.68 0 0 Z " fill="#1E1D1D" transform="translate(263,270)"/>
<path d="M0 0 C2.5625 0.1875 2.5625 0.1875 4.5625 2.1875 C4.5625 3.5075 4.5625 4.8275 4.5625 6.1875 C2.2364143 6.56813221 -0.09805264 6.90019945 -2.4375 7.1875 C-3.4375 6.1875 -3.4375 6.1875 -3.5625 3.6875 C-3.39599509 0.35740177 -3.31519894 0.2550153 0 0 Z " fill="#EEEDEE" transform="translate(366.4375,266.8125)"/>
<path d="M0 0 C0.99 0.33 1.98 0.66 3 1 C2.23640129 2.9195604 1.46381522 4.83554712 0.6875 6.75 C0.04361328 8.35101563 0.04361328 8.35101563 -0.61328125 9.984375 C-1.84608612 12.6652915 -3.12807487 14.7383192 -5 17 C-5.33 15.68 -5.66 14.36 -6 13 C-5.34 13 -4.68 13 -4 13 C-4.33 11.02 -4.66 9.04 -5 7 C-4.34 7 -3.68 7 -3 7 C-2.67 5.35 -2.34 3.7 -2 2 C-1.01 2.33 -0.02 2.66 1 3 C0.67 2.01 0.34 1.02 0 0 Z " fill="#F7F4F1" transform="translate(183,241)"/>
<path d="M0 0 C0.66 0.33 1.32 0.66 2 1 C2 1.66 2 2.32 2 3 C3.32 3.66 4.64 4.32 6 5 C5.67 6.98 5.34 8.96 5 11 C3.02 11 1.04 11 -1 11 C-0.67 7.37 -0.34 3.74 0 0 Z " fill="#221C1E" transform="translate(266,493)"/>
<path d="M0 0 C0 1.32 0 2.64 0 4 C-1.32 4 -2.64 4 -4 4 C-4 3.34 -4 2.68 -4 2 C-4.350625 2.474375 -4.70125 2.94875 -5.0625 3.4375 C-7.87553605 5.70607746 -10.4591923 5.74248671 -14 6 C-14.66 5.67 -15.32 5.34 -16 5 C-16 4.34 -16 3.68 -16 3 C-14.27318563 2.49193553 -12.54342021 1.99389533 -10.8125 1.5 C-9.84957031 1.2215625 -8.88664062 0.943125 -7.89453125 0.65625 C-5.14654124 0.03322392 -2.80401584 -0.12302812 0 0 Z " fill="#1A211E" transform="translate(314,306)"/>
<path d="M0 0 C2.875 -0.1875 2.875 -0.1875 6 0 C8 3 8 3 7.6875 5.125 C7 7 7 7 6 8 C4.14712498 8.07226502 2.29166122 8.0838122 0.4375 8.0625 C-0.57441406 8.05347656 -1.58632813 8.04445313 -2.62890625 8.03515625 C-3.41136719 8.02355469 -4.19382812 8.01195312 -5 8 C-1.63087642 5.25938971 0.7200183 4.66577493 5 4 C5.33 3.34 5.66 2.68 6 2 C5.01 2.33 4.02 2.66 3 3 C2.01 2.67 1.02 2.34 0 2 C0 1.34 0 0.68 0 0 Z " fill="#3A3738" transform="translate(509,337)"/>
<path d="M0 0 C1.65 0.33 3.3 0.66 5 1 C5.6875 4.3125 5.6875 4.3125 6 8 C4.6875 9.9375 4.6875 9.9375 3 11 C2.34 11 1.68 11 1 11 C1 11.66 1 12.32 1 13 C-1.31 13.33 -3.62 13.66 -6 14 C-3.64722731 11.27573689 -1.37503669 10.1858237 2 9 C2.16677282 5.58343976 2.16677282 5.58343976 2 2 C1.34 1.34 0.68 0.68 0 0 Z " fill="#EA353B" transform="translate(262,305)"/>
<path d="M0 0 C0.91058531 3.07322544 1.08886184 5.80097361 1 9 C0.401875 9.268125 -0.19625 9.53625 -0.8125 9.8125 C-2.97224808 10.98493467 -4.35790256 12.19369282 -6 14 C-6.66 13.67 -7.32 13.34 -8 13 C-7.04258894 11.39528272 -6.08403595 9.79124671 -5.125 8.1875 C-4.59132812 7.29417969 -4.05765625 6.40085938 -3.5078125 5.48046875 C-2.38116908 3.62705276 -1.20313389 1.80470083 0 0 Z " fill="#EB2E3B" transform="translate(251,140)"/>
<path d="M0 0 C-1.485 1.485 -1.485 1.485 -3 3 C-2.01 2.67 -1.02 2.34 0 2 C-0.33 3.65 -0.66 5.3 -1 7 C-4.7910119 5.55049545 -8.3874638 3.84827434 -12 2 C-7.72170329 -0.29194467 -4.74957752 -1.52664992 0 0 Z " fill="#F6E9E9" transform="translate(304,65)"/>
<path d="M0 0 C2.31 0 4.62 0 7 0 C6.34 2.64 5.68 5.28 5 8 C4.34 8 3.68 8 3 8 C2.34 7.34 1.68 6.68 1 6 C0.01 6.66 -0.98 7.32 -2 8 C-1.34 5.36 -0.68 2.72 0 0 Z " fill="#F7EAE8" transform="translate(433,352)"/>
<path d="M0 0 C1.5 2.0625 1.5 2.0625 2 4 C2.66 4 3.32 4 4 4 C3.67 4.66 3.34 5.32 3 6 C2.01 5.34 1.02 4.68 0 4 C0 3.34 0 2.68 0 2 C-1.75032844 2.14183696 -3.50025534 2.28863429 -5.25 2.4375 C-6.22453125 2.51871094 -7.1990625 2.59992188 -8.203125 2.68359375 C-10.56461753 2.95074584 -12.71901065 3.35371968 -15 4 C-14.3125 2.0625 -14.3125 2.0625 -13 0 C-8.66888683 -1.65601386 -4.42726168 -0.94351478 0 0 Z " fill="#D21C27" transform="translate(368,259)"/>
<path d="M0 0 C1.22589844 0.15275391 1.22589844 0.15275391 2.4765625 0.30859375 C3.41628906 0.43427734 3.41628906 0.43427734 4.375 0.5625 C4.045 1.5525 3.715 2.5425 3.375 3.5625 C1.725 3.8925 0.075 4.2225 -1.625 4.5625 C-1.625 4.8925 -1.625 5.2225 -1.625 5.5625 C-3.275 5.5625 -4.925 5.5625 -6.625 5.5625 C-6.625 3.9125 -6.625 2.2625 -6.625 0.5625 C-4.10446405 -0.69776798 -2.7707902 -0.35624445 0 0 Z " fill="#1E1C1D" transform="translate(510.625,338.4375)"/>
<path d="M0 0 C2.4375 0.375 2.4375 0.375 5 1 C5.33 1.66 5.66 2.32 6 3 C4.68 2.67 3.36 2.34 2 2 C2.33 2.99 2.66 3.98 3 5 C2.01 5 1.02 5 0 5 C0 5.99 0 6.98 0 8 C-3.37503669 6.8141763 -5.64722731 5.72426311 -8 3 C-6.865625 2.87625 -5.73125 2.7525 -4.5625 2.625 C-3.386875 2.41875 -2.21125 2.2125 -1 2 C-0.67 1.34 -0.34 0.68 0 0 Z " fill="#363536" transform="translate(130,325)"/>
<path d="M0 0 C2.4375 0.1875 2.4375 0.1875 3.4375 1.1875 C3.47830783 3.18708364 3.48004356 5.18795254 3.4375 7.1875 C3.1075 7.1875 2.7775 7.1875 2.4375 7.1875 C2.4375 5.5375 2.4375 3.8875 2.4375 2.1875 C0.7875 2.1875 -0.8625 2.1875 -2.5625 2.1875 C-1.9025 5.8175 -1.2425 9.4475 -0.5625 13.1875 C-1.2225 13.1875 -1.8825 13.1875 -2.5625 13.1875 C-2.5625 12.5275 -2.5625 11.8675 -2.5625 11.1875 C-3.2225 11.1875 -3.8825 11.1875 -4.5625 11.1875 C-4.61649736 9.72957116 -4.65529177 8.27107288 -4.6875 6.8125 C-4.72230469 5.59433594 -4.72230469 5.59433594 -4.7578125 4.3515625 C-4.45325847 0.9771038 -3.29360637 0.24099559 0 0 Z " fill="#B91D28" transform="translate(288.5625,292.8125)"/>
<path d="M0 0 C3.67882073 3.28466137 5.75150101 6.66360908 8 11 C8 11.66 8 12.32 8 13 C2.25 13.125 2.25 13.125 0 12 C0.33 11.34 0.66 10.68 1 10 C1.66 10.33 2.32 10.66 3 11 C2.690625 10.113125 2.38125 9.22625 2.0625 8.3125 C1.1709329 5.53290845 0.50622993 2.86863625 0 0 Z " fill="#ED333D" transform="translate(401,187)"/>
<path d="M0 0 C2.64 0 5.28 0 8 0 C8.33 0.99 8.66 1.98 9 3 C8.01 4.485 8.01 4.485 7 6 C2.05 5.67 -2.9 5.34 -8 5 C-8 4.67 -8 4.34 -8 4 C-4.7 3.67 -1.4 3.34 2 3 C1.34 2.01 0.68 1.02 0 0 Z " fill="#464344" transform="translate(356,507)"/>
<path d="M0 0 C0 2 0 4 0 6 C-2.64 6.33 -5.28 6.66 -8 7 C-8 6.34 -8 5.68 -8 5 C-9.32 5.33 -10.64 5.66 -12 6 C-10.66144904 3.32289809 -9.27941912 3.04870906 -6.5625 1.875 C-5.75941406 1.52179688 -4.95632813 1.16859375 -4.12890625 0.8046875 C-2 0 -2 0 0 0 Z " fill="#F5ECE8" transform="translate(376,425)"/>
<path d="M0 0 C1.31677734 -0.02126953 1.31677734 -0.02126953 2.66015625 -0.04296875 C4.9375 0.1875 4.9375 0.1875 6.9375 2.1875 C2.3175 2.5175 -2.3025 2.8475 -7.0625 3.1875 C-7.3925 4.1775 -7.7225 5.1675 -8.0625 6.1875 C-9.3825 5.8575 -10.7025 5.5275 -12.0625 5.1875 C-8.19426186 1.05248681 -5.61780951 0.04136826 0 0 Z " fill="#3A1E1D" transform="translate(251.0625,260.8125)"/>
<path d="M0 0 C1.0013988 3.00419641 1.51421457 5.87709365 2 9 C1.34 8.67 0.68 8.34 0 8 C-2.31 9.65 -4.62 11.3 -7 13 C-7 9.16235973 -5.73464665 7.88513915 -3.5 4.8125 C-2.8503125 3.91144531 -2.200625 3.01039063 -1.53125 2.08203125 C-1.0259375 1.39496094 -0.520625 0.70789063 0 0 Z " fill="#EA3239" transform="translate(222,184)"/>
<path d="M0 0 C3.53191322 3.43153914 6.7137505 6.97375062 9.8125 10.8125 C10.60269531 11.78832031 11.39289063 12.76414062 12.20703125 13.76953125 C13.09455078 14.87361328 13.09455078 14.87361328 14 16 C11.53721199 17.231394 9.7204945 17.07159196 7 17 C7.24621094 16.28199219 7.49242187 15.56398438 7.74609375 14.82421875 C8.29915152 11.8869683 8.29915152 11.8869683 6.34765625 9.39453125 C5.59355469 8.54246094 4.83945313 7.69039063 4.0625 6.8125 C0 2.16466552 0 2.16466552 0 0 Z " fill="#FCDAD7" transform="translate(194,387)"/>
<path d="M0 0 C3.63 1.32 7.26 2.64 11 4 C11 4.99 11 5.98 11 7 C10.05125 6.835 9.1025 6.67 8.125 6.5 C5.19831099 5.9473365 5.19831099 5.9473365 3 6 C2.01 5.67 1.02 5.34 0 5 C0 3.35 0 1.7 0 0 Z " fill="#F7F1EE" transform="translate(250,433)"/>
<path d="M0 0 C0.66 0 1.32 0 2 0 C2 1.98 2 3.96 2 6 C2.33 6 2.66 6 3 6 C3.1875 8.875 3.1875 8.875 3 12 C2.01 12.66 1.02 13.32 0 14 C-0.99 10.37 -1.98 6.74 -3 3 C-2.01 3.495 -2.01 3.495 -1 4 C-0.67 2.68 -0.34 1.36 0 0 Z " fill="#E6262D" transform="translate(180,344)"/>
<path d="M0 0 C2 1 2 1 5 3 C5.56737589 10.14893617 5.56737589 10.14893617 3 14 C2.49528803 12.23050388 1.99639315 10.45934777 1.5 8.6875 C1.2215625 7.70136719 0.943125 6.71523438 0.65625 5.69921875 C0 3 0 3 0 0 Z " fill="#F9F4F1" transform="translate(434,253)"/>
<path d="M0 0 C-1.32 0.99 -2.64 1.98 -4 3 C-4.66 2.67 -5.32 2.34 -6 2 C-6 2.66 -6 3.32 -6 4 C-5.34 4.33 -4.68 4.66 -4 5 C-4 5.66 -4 6.32 -4 7 C-5.0725 6.690625 -6.145 6.38125 -7.25 6.0625 C-9.82972239 5.33157866 -12.39796433 4.63899548 -15 4 C-12.87875034 3.13656176 -10.75286928 2.28449352 -8.625 1.4375 C-6.84996094 0.72400391 -6.84996094 0.72400391 -5.0390625 -0.00390625 C-2 -1 -2 -1 0 0 Z " fill="#F8F3F0" transform="translate(364,432)"/>
<path d="M0 0 C1.32 0.66 2.64 1.32 4 2 C3.79375 3.093125 3.5875 4.18625 3.375 5.3125 C2.59653475 9.0838401 2.59653475 9.0838401 5 12 C4.01 12.495 4.01 12.495 3 13 C3 12.34 3 11.68 3 11 C2.01 11 1.02 11 0 11 C-1.49297212 8.01405576 -1.11755228 5.29146376 -1 2 C-0.67 1.34 -0.34 0.68 0 0 Z " fill="#EA2630" transform="translate(227,313)"/>
<path d="M0 0 C1.65 0.33 3.3 0.66 5 1 C5.125 4.375 5.125 4.375 5 8 C4.34 8.66 3.68 9.32 3 10 C3 7.36 3 4.72 3 2 C2.34 2 1.68 2 1 2 C1 4.64 1 7.28 1 10 C0.01 10.33 -0.98 10.66 -2 11 C-2 10.34 -2 9.68 -2 9 C-2.66 8.67 -3.32 8.34 -4 8 C-2.68 5.36 -1.36 2.72 0 0 Z " fill="#561C1F" transform="translate(321,294)"/>
<path d="M0 0 C5.78898419 -0.20674944 10.42932723 0.40837921 16 2 C16 2.33 16 2.66 16 3 C14.27185839 3.19672365 12.54240803 3.38196799 10.8125 3.5625 C9.84957031 3.66691406 8.88664062 3.77132813 7.89453125 3.87890625 C5.05766623 3.99758751 2.74576329 3.67765639 0 3 C0 2.01 0 1.02 0 0 Z " fill="#373536" transform="translate(349,503)"/>
<path d="M0 0 C-0.99 1.485 -0.99 1.485 -2 3 C-1.67 3.66 -1.34 4.32 -1 5 C-4.04386724 5.08226668 -6.07175348 4.97608217 -9 4 C-9 3.34 -9 2.68 -9 2 C-10.32 1.67 -11.64 1.34 -13 1 C-11.39796533 0.63631108 -9.79325797 0.28438048 -8.1875 -0.0625 C-7.29417969 -0.25972656 -6.40085937 -0.45695312 -5.48046875 -0.66015625 C-3 -1 -3 -1 0 0 Z " fill="#F8ECE7" transform="translate(337,441)"/>
<path d="M0 0 C2.31 0.66 4.62 1.32 7 2 C7.33 3.65 7.66 5.3 8 7 C5.69 6.67 3.38 6.34 1 6 C1 5.34 1 4.68 1 4 C0.01 3.67 -0.98 3.34 -2 3 C-1.34 2.67 -0.68 2.34 0 2 C0 1.34 0 0.68 0 0 Z " fill="#201E1F" transform="translate(132,327)"/>
<path d="M0 0 C2.64 0.33 5.28 0.66 8 1 C6.68261355 3.6347729 5.76245796 4.00295392 3 5 C-0.234375 4.9765625 -0.234375 4.9765625 -3.75 4.625 C-4.92046875 4.51414062 -6.0909375 4.40328125 -7.296875 4.2890625 C-8.63492188 4.14597656 -8.63492188 4.14597656 -10 4 C-10 3.67 -10 3.34 -10 3 C-9.236875 2.855625 -8.47375 2.71125 -7.6875 2.5625 C-4.91827092 2.0367406 -4.91827092 2.0367406 -2 1 C-1.34 1 -0.68 1 0 1 C0 0.67 0 0.34 0 0 Z " fill="#2D2A2B" transform="translate(114,321)"/>
<path d="M0 0 C4.60976 1.31707429 8.18857342 3.07495169 12 6 C12.33 6.99 12.66 7.98 13 9 C12.34 9.66 11.68 10.32 11 11 C10.29875 10.278125 9.5975 9.55625 8.875 8.8125 C6.9024876 6.8286838 4.85610734 5.01682261 2.6875 3.25 C1.800625 2.5075 0.91375 1.765 0 1 C0 0.67 0 0.34 0 0 Z " fill="#F6E8E6" transform="translate(328,94)"/>
<path d="M0 0 C2.63978826 3.18595135 5.10498388 6.30970546 7 10 C6.67 10.66 6.34 11.32 6 12 C4.35 12 2.7 12 1 12 C0.67 8.04 0.34 4.08 0 0 Z " fill="#EE2F3B" transform="translate(411,204)"/>
<path d="M0 0 C1.32 0 2.64 0 4 0 C4.33 0.66 4.66 1.32 5 2 C7.02463255 2.65213292 7.02463255 2.65213292 9 3 C9 3.99 9 4.98 9 6 C8.01 6.495 8.01 6.495 7 7 C7 7.66 7 8.32 7 9 C7.66 9 8.32 9 9 9 C8.67 9.99 8.34 10.98 8 12 C8 11.34 8 10.68 8 10 C7.34 10 6.68 10 6 10 C4.74609375 8.3203125 4.74609375 8.3203125 3.4375 6.125 C2.78587891 5.04605469 2.78587891 5.04605469 2.12109375 3.9453125 C1.37555047 2.65165204 0.66774129 1.33548258 0 0 Z " fill="#F8EAE9" transform="translate(371,142)"/>
<path d="M0 0 C0.33 0 0.66 0 1 0 C1.11381955 6.76594019 0.88021369 13.28837062 0 20 C-3.01764189 14.58740423 -2.44669804 9.32812637 -1 3.5 C-0.67 2.345 -0.34 1.19 0 0 Z " fill="#474344" transform="translate(347,472)"/>
<path d="M0 0 C0.99 0 1.98 0 3 0 C3.66 2.64 4.32 5.28 5 8 C4.34 8 3.68 8 3 8 C3 7.34 3 6.68 3 6 C2.34 6 1.68 6 1 6 C1 6.66 1 7.32 1 8 C0.34 8 -0.32 8 -1 8 C-1.93065133 5.39417629 -2.14917407 4.35801776 -1.0625 1.75 C-0.711875 1.1725 -0.36125 0.595 0 0 Z " fill="#F5EDEC" transform="translate(179,360)"/>
<path d="M0 0 C0.33 0.66 0.66 1.32 1 2 C3.58075357 2.39532632 3.58075357 2.39532632 6.625 2.5 C11.39881998 2.81331754 15.48332599 3.46022477 20 5 C20 5.33 20 5.66 20 6 C14.1111566 6.21221057 9.16709687 5.55320433 3.5 4 C2.40945312 3.71382813 2.40945312 3.71382813 1.296875 3.421875 C-0.47106531 2.95662755 -2.23588933 2.47956407 -4 2 C-2.68 1.34 -1.36 0.68 0 0 Z " fill="#4D4C4C" transform="translate(152,340)"/>
<path d="M0 0 C0.78375 0.04125 1.5675 0.0825 2.375 0.125 C2.375 1.115 2.375 2.105 2.375 3.125 C1.385 3.125 0.395 3.125 -0.625 3.125 C-0.295 4.445 0.035 5.765 0.375 7.125 C-0.945 7.125 -2.265 7.125 -3.625 7.125 C-4.25 4.75 -4.25 4.75 -4.625 2.125 C-2.625 0.125 -2.625 0.125 0 0 Z " fill="#3C3839" transform="translate(99.625,315.875)"/>
<path d="M0 0 C0 0.66 0 1.32 0 2 C1.65 2.33 3.3 2.66 5 3 C5 3.33 5 3.66 5 4 C3.39658445 4.33692785 1.79223445 4.66941093 0.1875 5 C-0.70582031 5.185625 -1.59914062 5.37125 -2.51953125 5.5625 C-5 6 -5 6 -8 6 C-7.75 4.125 -7.75 4.125 -7 2 C-4.41847698 0.27898465 -3.15081975 0 0 0 Z " fill="#DA1C25" transform="translate(248,257)"/>
<path d="M0 0 C1.99954746 -0.04254356 4.00041636 -0.04080783 6 0 C7 1 7 1 7.0625 4.5625 C7.041875 5.696875 7.02125 6.83125 7 8 C6.34 7.67 5.68 7.34 5 7 C5 5.02 5 3.04 5 1 C3.68 1 2.36 1 1 1 C1.99 2.32 2.98 3.64 4 5 C3.34 5 2.68 5 2 5 C1.67 5.66 1.34 6.32 1 7 C0.34 6.67 -0.32 6.34 -1 6 C-0.67 4.02 -0.34 2.04 0 0 Z " fill="#373536" transform="translate(117,300)"/>
<path d="M0 0 C4.21912747 0.4794463 6.79663178 1.16625119 10 4 C6.54207311 5.58076658 3.8168932 6.51579638 0 6 C-0.66 5.01 -1.32 4.02 -2 3 C-1.34 2.67 -0.68 2.34 0 2 C0 1.34 0 0.68 0 0 Z " fill="#E01F2B" transform="translate(339,433)"/>
<path d="M0 0 C0.99 0.33 1.98 0.66 3 1 C2.25 5.75 2.25 5.75 0 8 C-0.99 7.67 -1.98 7.34 -3 7 C-3 5.68 -3 4.36 -3 3 C-2.34 3 -1.68 3 -1 3 C-0.67 2.01 -0.34 1.02 0 0 Z " fill="#262425" transform="translate(509,326)"/>
<path d="M0 0 C0.66 0 1.32 0 2 0 C0.99806563 3.79303725 0.18975773 6.71536341 -2 10 C-4.625 11.1875 -4.625 11.1875 -7 12 C-5.50328459 7.50985376 -3.16631659 3.52151236 0 0 Z " fill="#EC343F" transform="translate(205,209)"/>
<path d="M0 0 C-0.25561323 2.3431213 -0.59270772 4.67843403 -1 7 C-1.99 7.495 -1.99 7.495 -3 8 C-4.5625 6.75 -4.5625 6.75 -6 5 C-5.875 2.875 -5.875 2.875 -5 1 C-2 0 -2 0 0 0 Z " fill="#F8F3F2" transform="translate(214,192)"/>
<path d="M0 0 C0.33 0.66 0.66 1.32 1 2 C0.67 2.66 0.34 3.32 0 4 C0.66 4 1.32 4 2 4 C1.67 5.98 1.34 7.96 1 10 C0.34 9.67 -0.32 9.34 -1 9 C-0.67 7.68 -0.34 6.36 0 5 C-0.99 5.495 -0.99 5.495 -2 6 C-2 7.32 -2 8.64 -2 10 C-3.32 10 -4.64 10 -6 10 C-4.6302836 6.00499382 -2.74277578 3.19990508 0 0 Z " fill="#E6393F" transform="translate(229,174)"/>
<path d="M0 0 C3.0831351 1.19899698 6.06279492 2.47700477 9 4 C9 4.66 9 5.32 9 6 C5.06225823 6.36630156 3.43460229 6.30233203 0.125 4 C-0.57625 3.34 -1.2775 2.68 -2 2 C-1.34 2 -0.68 2 0 2 C0 1.34 0 0.68 0 0 Z " fill="#F8F2F1" transform="translate(235,426)"/>
<path d="M0 0 C1.98 0 3.96 0 6 0 C6.33 0.99 6.66 1.98 7 3 C9.01508358 3.73323796 9.01508358 3.73323796 11 4 C11.33 5.65 11.66 7.3 12 9 C10 8 8 7 6 6 C6 5.34 6 4.68 6 4 C5.195625 3.71125 4.39125 3.4225 3.5625 3.125 C1 2 1 2 0 0 Z " fill="#EE353F" transform="translate(218,413)"/>
<path d="M0 0 C0.2475 0.61875 0.495 1.2375 0.75 1.875 C2.20628639 4.35068687 3.37812506 4.95125002 6 6 C6 6.33 6 6.66 6 7 C3.03 7 0.06 7 -3 7 C-3.33 5.68 -3.66 4.36 -4 3 C-3.01 2.67 -2.02 2.34 -1 2 C-0.67 1.34 -0.34 0.68 0 0 Z " fill="#1F1C1D" transform="translate(494,333)"/>
<path d="M0 0 C0.99 0.33 1.98 0.66 3 1 C3.309375 1.804375 3.61875 2.60875 3.9375 3.4375 C4.76608159 6.14157493 4.76608159 6.14157493 7.125 7.3125 C7.74375 7.539375 8.3625 7.76625 9 8 C6.6875 9.5625 6.6875 9.5625 4 11 C3.01 10.67 2.02 10.34 1 10 C1.33 9.34 1.66 8.68 2 8 C1.68236347 6.00103089 1.68236347 6.00103089 1.0625 3.875 C0.86785156 3.15054687 0.67320312 2.42609375 0.47265625 1.6796875 C0.31667969 1.12539063 0.16070312 0.57109375 0 0 Z " fill="#363435" transform="translate(249,267)"/>
<path d="M0 0 C4.59306496 1.4859916 7.43569245 3.85014682 11 7 C10.34 7.66 9.68 8.32 9 9 C8.608125 8.505 8.21625 8.01 7.8125 7.5 C5.44908285 5.54406857 3.98564997 5.75792027 1 6 C0.67 4.02 0.34 2.04 0 0 Z " fill="#E72935" transform="translate(298,70)"/>
<path d="M0 0 C-1.98 0.99 -1.98 0.99 -4 2 C-3.67 2.66 -3.34 3.32 -3 4 C-7.01804691 4.84098656 -10.01803543 5.05404945 -14 4 C-11.8244694 1.8244694 -10.44026108 1.28120447 -7.5625 0.3125 C-6.78003906 0.04050781 -5.99757812 -0.23148437 -5.19140625 -0.51171875 C-3 -1 -3 -1 0 0 Z " fill="#F99FA4" transform="translate(260,305)"/>
<path d="M0 0 C1.32 1.32 2.64 2.64 4 4 C2.95125002 6.62187494 2.35068687 7.79371361 -0.125 9.25 C-0.74375 9.4975 -1.3625 9.745 -2 10 C-1.79375 9.05125 -1.5875 8.1025 -1.375 7.125 C-1.25125 6.09375 -1.1275 5.0625 -1 4 C-1.66 3.34 -2.32 2.68 -3 2 C-2.01 1.34 -1.02 0.68 0 0 Z " fill="#412B2B" transform="translate(260,264)"/>
<path d="M0 0 C5.28 0.99 10.56 1.98 16 3 C16 3.33 16 3.66 16 4 C13.91695462 4.05418326 11.83350232 4.09287551 9.75 4.125 C8.00976562 4.15980469 8.00976562 4.15980469 6.234375 4.1953125 C3.17213954 4.0103949 1.55797249 3.60823023 -1 2 C-0.67 1.34 -0.34 0.68 0 0 Z " fill="#EA222E" transform="translate(363,322)"/>
<path d="M0 0 C2.64 0.66 5.28 1.32 8 2 C5 4 5 4 2 4 C2 4.66 2 5.32 2 6 C2.66 6.33 3.32 6.66 4 7 C1.0625 6.625 1.0625 6.625 -2 6 C-2.33 5.34 -2.66 4.68 -3 4 C-2.01 3.67 -1.02 3.34 0 3 C0 2.01 0 1.02 0 0 Z " fill="#421E1D" transform="translate(296,305)"/>
<path d="M0 0 C0.66 0 1.32 0 2 0 C2.33 1.65 2.66 3.3 3 5 C4.65 4.67 6.3 4.34 8 4 C8 5.32 8 6.64 8 8 C6.02 8.99 6.02 8.99 4 10 C3.32845067 8.71086513 2.66291141 7.41859796 2 6.125 C1.62875 5.40570313 1.2575 4.68640625 0.875 3.9453125 C0 2 0 2 0 0 Z " fill="#FAEDEC" transform="translate(408,196)"/>
<path d="M0 0 C2.18647619 2.18647619 2.91236229 2.93268023 3 6 C0.5625 8.75 0.5625 8.75 -2 11 C-1.85957123 9.35369672 -1.71250671 7.70795821 -1.5625 6.0625 C-1.48128906 5.14597656 -1.40007812 4.22945313 -1.31640625 3.28515625 C-1 1 -1 1 0 0 Z " fill="#ED2B34" transform="translate(402,395)"/>
<path d="M0 0 C0.33 0 0.66 0 1 0 C2.62422981 5.35556858 3.77114759 9.46223653 1.125 14.625 C0.073125 16.295625 0.073125 16.295625 -1 18 C-2 15 -2 15 -1.0625 11.8125 C0.11806548 7.57635329 0.15314572 4.36465301 0 0 Z " fill="#EE2733" transform="translate(426,355)"/>
<path d="M0 0 C0.90105469 0.02707031 1.80210937 0.05414063 2.73046875 0.08203125 C3.76107422 0.13423828 3.76107422 0.13423828 4.8125 0.1875 C4.8125 0.8475 4.8125 1.5075 4.8125 2.1875 C2.16791621 3.50979189 0.13488699 3.28427194 -2.8125 3.25 C-3.81539062 3.24097656 -4.81828125 3.23195313 -5.8515625 3.22265625 C-6.62242187 3.21105469 -7.39328125 3.19945312 -8.1875 3.1875 C-5.67753317 0.01043235 -3.96125134 -0.15433447 0 0 Z " fill="#18221F" transform="translate(251.1875,282.8125)"/>
<path d="M0 0 C0.66 0 1.32 0 2 0 C1.649375 0.61875 1.29875 1.2375 0.9375 1.875 C0.4734375 2.926875 0.4734375 2.926875 0 4 C0.33 4.66 0.66 5.32 1 6 C0.01 6 -0.98 6 -2 6 C-2 6.66 -2 7.32 -2 8 C-3.32 7.67 -4.64 7.34 -6 7 C-5.04882866 5.8274869 -4.08882991 4.66212985 -3.125 3.5 C-2.59132813 2.8503125 -2.05765625 2.200625 -1.5078125 1.53125 C-0.76144531 0.77328125 -0.76144531 0.77328125 0 0 Z " fill="#F9EAEA" transform="translate(398,407)"/>
<path d="M0 0 C1.32 0 2.64 0 4 0 C5.32 2.31 6.64 4.62 8 7 C7.01 7.33 6.02 7.66 5 8 C0 2.25 0 2.25 0 0 Z " fill="#ED212F" transform="translate(200,393)"/>
<path d="M0 0 C0.99 0 1.98 0 3 0 C2.01 3.3 1.02 6.6 0 10 C-2 7 -2 7 -1.6875 3.875 C-1 1 -1 1 0 0 Z " fill="#EB2631" transform="translate(430,353)"/>
<path d="M0 0 C0.66 0.33 1.32 0.66 2 1 C2.33 1.99 2.66 2.98 3 4 C3.66 4.66 4.32 5.32 5 6 C4.01 6.33 3.02 6.66 2 7 C-2.66666667 4.66666667 -2.66666667 4.66666667 -4 2 C-2.125 0.9375 -2.125 0.9375 0 0 Z " fill="#1F1D1E" transform="translate(122,322)"/>
<path d="M0 0 C0.33 0.99 0.66 1.98 1 3 C1.66 3 2.32 3 3 3 C3.33 4.98 3.66 6.96 4 9 C3.34 9 2.68 9 2 9 C2 8.34 2 7.68 2 7 C0.35 7 -1.3 7 -3 7 C-2.01 4.69 -1.02 2.38 0 0 Z " fill="#E8333C" transform="translate(187,239)"/>
<path d="M0 0 C0.66 0 1.32 0 2 0 C2 0.66 2 1.32 2 2 C2.66 2 3.32 2 4 2 C4 1.34 4 0.68 4 0 C4.99 0.33 5.98 0.66 7 1 C6.67 3.64 6.34 6.28 6 9 C3.59927045 6.11912454 1.52708963 3.43595166 0 0 Z " fill="#FAECEC" transform="translate(400,184)"/>
<path d="M0 0 C0.33 0.99 0.66 1.98 1 3 C-1.31 4.65 -3.62 6.3 -6 8 C-6.36458333 3.50347222 -6.36458333 3.50347222 -4.6875 1.1875 C-3 0 -3 0 0 0 Z " fill="#EC2530" transform="translate(399,404)"/>
<path d="M0 0 C0.66 0 1.32 0 2 0 C2 0.66 2 1.32 2 2 C4.97 2.495 4.97 2.495 8 3 C8 4.32 8 5.64 8 7 C8.66 7.66 9.32 8.32 10 9 C7.625 8.8125 7.625 8.8125 5 8 C3.6875 5.4375 3.6875 5.4375 3 3 C2.34 3 1.68 3 1 3 C0.67 2.01 0.34 1.02 0 0 Z " fill="#F5EBE7" transform="translate(360,128)"/>
<path d="M0 0 C0.33 0.66 0.66 1.32 1 2 C0.67 2.66 0.34 3.32 0 4 C-2.66666667 4 -5.33333333 4 -8 4 C-8.33 3.34 -8.66 2.68 -9 2 C-5.86501708 0.14223235 -3.62528568 -0.20140476 0 0 Z " fill="#333233" transform="translate(247,506)"/>
<path d="M0 0 C0.33 0 0.66 0 1 0 C1.33 4.29 1.66 8.58 2 13 C0.35 13 -1.3 13 -3 13 C-2.34 12.67 -1.68 12.34 -1 12 C-0.53101037 9.1840151 -0.53101037 9.1840151 -0.375 5.9375 C-0.30023438 4.83277344 -0.22546875 3.72804688 -0.1484375 2.58984375 C-0.09945312 1.73519531 -0.05046875 0.88054687 0 0 Z " fill="#EFDBD5" transform="translate(172,325)"/>
<path d="M0 0 C0 0.66 0 1.32 0 2 C-4.92737019 3.97094808 -8.78020872 4.1799928 -14 4 C-9.39033958 1.51787516 -5.27072485 0 0 0 Z " fill="#E42F39" transform="translate(252,321)"/>
<path d="M0 0 C0.33 1.65 0.66 3.3 1 5 C-1.875 4.6875 -1.875 4.6875 -5 4 C-5.66 3.01 -6.32 2.02 -7 1 C-4 0 -4 0 0 0 Z " fill="#FAB8C1" transform="translate(262,305)"/>
<path d="M0 0 C3.33557632 2.9905167 5.15083921 5.93184627 7 10 C5.68 9.67 4.36 9.34 3 9 C3 8.01 3 7.02 3 6 C2.01 6 1.02 6 0 6 C0 4.02 0 2.04 0 0 Z " fill="#EB3439" transform="translate(393,174)"/>
<path d="M0 0 C3.91402949 1.26941497 5.79072873 2.51167694 8 6 C7.01 6.33 6.02 6.66 5 7 C3.29115995 5.37660195 1.62553283 3.70680947 0 2 C0 1.34 0 0.68 0 0 Z " fill="#E6282E" transform="translate(312,81)"/>
<path d="M0 0 C1.7074998 1.28062485 3.37373596 2.61767557 5 4 C5 4.66 5 5.32 5 6 C2.69 6 0.38 6 -2 6 C-2 4.68 -2 3.36 -2 2 C-1.34 2 -0.68 2 0 2 C0 1.34 0 0.68 0 0 Z " fill="#EB3439" transform="translate(347,114)"/>
<path d="M0 0 C2.97 0 5.94 0 9 0 C9.66 1.32 10.32 2.64 11 4 C9.35 3.67 7.7 3.34 6 3 C6 2.67 6 2.34 6 2 C3.03 1.505 3.03 1.505 0 1 C0 0.67 0 0.34 0 0 Z M7 4 C7.66 4.66 8.32 5.32 9 6 C8.01 6 7.02 6 6 6 C6.33 5.34 6.66 4.68 7 4 Z " fill="#1C1A1B" transform="translate(357,506)"/>
<path d="M0 0 C1.32 0.99 2.64 1.98 4 3 C0.04 3 -3.92 3 -8 3 C-8 2.34 -8 1.68 -8 1 C-4.97827058 -0.00724314 -3.14484365 -0.30681401 0 0 Z " fill="#FDEFF3" transform="translate(320,443)"/>
<path d="M0 0 C0 1.32 0 2.64 0 4 C-1.32 4 -2.64 4 -4 4 C-4 3.34 -4 2.68 -4 2 C-5.98 2 -7.96 2 -10 2 C-10 1.67 -10 1.34 -10 1 C-6.59437148 0.22157062 -3.49234244 -0.09978121 0 0 Z " fill="#2D211F" transform="translate(314,306)"/>
<path d="M0 0 C3.3 0.33 6.6 0.66 10 1 C6.99895182 2.50052409 4.90648893 3.38848592 1.75 4.125 C0.5125 4.41375 -0.725 4.7025 -2 5 C-2 4.34 -2 3.68 -2 3 C-0.68 2.67 0.64 2.34 2 2 C1.34 1.34 0.68 0.68 0 0 Z " fill="#E72935" transform="translate(242,305)"/>
<path d="M0 0 C1.32 0 2.64 0 4 0 C4.25 2.3125 4.25 2.3125 4 5 C2 6.8125 2 6.8125 0 8 C-0.66 7.01 -1.32 6.02 -2 5 C-1.01 4.67 -0.02 4.34 1 4 C0.67 2.68 0.34 1.36 0 0 Z " fill="#1C191A" transform="translate(118,301)"/>
<path d="M0 0 C0.66 0.66 1.32 1.32 2 2 C0.03681826 5.53372712 -2.04070881 8.24479785 -5 11 C-4.67 9.02 -4.34 7.04 -4 5 C-2.68 4.67 -1.36 4.34 0 4 C0 2.68 0 1.36 0 0 Z " fill="#FBE2DF" transform="translate(207,202)"/>
<path d="M0 0 C-0.33 0.99 -0.66 1.98 -1 3 C-2.65 3 -4.3 3 -6 3 C-6.33 2.01 -6.66 1.02 -7 0 C-3.86650268 -1.04449911 -3.01031744 -0.93423645 0 0 Z " fill="#2B2B2B" transform="translate(245,512)"/>
<path d="M0 0 C0 0.66 0 1.32 0 2 C3.3 1.67 6.6 1.34 10 1 C8 3 8 3 5.50390625 3.265625 C4.04791016 3.25789063 4.04791016 3.25789063 2.5625 3.25 C1.11037109 3.25773437 1.11037109 3.25773437 -0.37109375 3.265625 C-3 3 -3 3 -6 1 C-3.92446352 0.4465236 -2.15634036 0 0 0 Z " fill="#4B1E20" transform="translate(248,285)"/>
<path d="M0 0 C0.66 0 1.32 0 2 0 C2.33 0.66 2.66 1.32 3 2 C3.66 2 4.32 2 5 2 C5.125 4.875 5.125 4.875 5 8 C4.34 8.66 3.68 9.32 3 10 C2.01 6.7 1.02 3.4 0 0 Z " fill="#F8E9E8" transform="translate(425,230)"/>
<path d="M0 0 C1.5 1.375 1.5 1.375 3 3 C3 3.66 3 4.32 3 5 C3.99 5.33 4.98 5.66 6 6 C5.67 6.99 5.34 7.98 5 9 C2.5 7.875 2.5 7.875 0 6 C-0.3125 2.8125 -0.3125 2.8125 0 0 Z " fill="#EE3743" transform="translate(362,131)"/>
<path d="M0 0 C1.125 1.75 1.125 1.75 2 4 C1.1875 6.0625 1.1875 6.0625 0 8 C-0.33 8.99 -0.66 9.98 -1 11 C-1.99 11.33 -2.98 11.66 -4 12 C-3.52309796 10.37433394 -3.04340334 8.74948689 -2.5625 7.125 C-2.29566406 6.22007813 -2.02882813 5.31515625 -1.75390625 4.3828125 C-1 2 -1 2 0 0 Z " fill="#E54149" transform="translate(266,108)"/>
<path d="M0 0 C1.32 0.33 2.64 0.66 4 1 C4.625 2.8125 4.625 2.8125 5 5 C4.01 6.485 4.01 6.485 3 8 C0 3.375 0 3.375 0 0 Z " fill="#F7F2F0" transform="translate(386,160)"/>
<path d="M0 0 C-0.99 1.32 -1.98 2.64 -3 4 C-4.32 3.67 -5.64 3.34 -7 3 C-6.67 2.01 -6.34 1.02 -6 0 C-3.50907189 -1.24546405 -2.58919267 -0.7767578 0 0 Z " fill="#1E1B1C" transform="translate(147,334)"/>
<path d="M0 0 C-1.32 0.33 -2.64 0.66 -4 1 C-4 1.99 -4 2.98 -4 4 C-2.68 4.33 -1.36 4.66 0 5 C-2.875 5.1875 -2.875 5.1875 -6 5 C-6.66 4.01 -7.32 3.02 -8 2 C-4.77208445 -0.1519437 -3.71599191 -0.20086443 0 0 Z " fill="#FDA5AA" transform="translate(238,320)"/>
<path d="M0 0 C1.65 0 3.3 0 5 0 C4.42655063 2.86724686 4.1385485 3.8614515 2 6 C1.34 6 0.68 6 0 6 C0 4.02 0 2.04 0 0 Z " fill="#341C1E" transform="translate(286,295)"/>
<path d="M0 0 C0.33 0 0.66 0 1 0 C2.125 6.75 2.125 6.75 1 9 C0.34 9 -0.32 9 -1 9 C-1.33 6.69 -1.66 4.38 -2 2 C-1.34 2 -0.68 2 0 2 C0 1.34 0 0.68 0 0 Z " fill="#FAF4F1" transform="translate(187,230)"/>
<path d="M0 0 C2 4 2 4 1.6875 6.125 C1 8 1 8 0 10 C-0.66 10 -1.32 10 -2 10 C-1.34 6.7 -0.68 3.4 0 0 Z " fill="#EE3944" transform="translate(269,98)"/>
<path d="M0 0 C0.33 0 0.66 0 1 0 C1.17942163 3.94727588 1.09350689 6.5980513 -1 10 C-1.66 10 -2.32 10 -3 10 C-2.01 6.7 -1.02 3.4 0 0 Z " fill="#EE414D" transform="translate(179,256)"/>
<path d="M0 0 C2.50816459 2.50816459 3.61410019 3.90837736 5 7 C3.35 7.66 1.7 8.32 0 9 C0 6.03 0 3.06 0 0 Z " fill="#F03F4B" transform="translate(384,160)"/>
<path d="M0 0 C0.66 0.33 1.32 0.66 2 1 C-0.43774574 4.7785059 -0.43774574 4.7785059 -3.0625 5.8125 C-5 6 -5 6 -7 5 C-4.69 3.35 -2.38 1.7 0 0 Z " fill="#F7D7D3" transform="translate(390,414)"/>
<path d="M0 0 C3.875 1.75 3.875 1.75 5 4 C3.35 4 1.7 4 0 4 C-0.33 4.66 -0.66 5.32 -1 6 C-1.66 6 -2.32 6 -3 6 C-2 4 -1 2 0 0 Z " fill="#FCE4E5" transform="translate(211,408)"/>
<path d="M0 0 C0.66 0.99 1.32 1.98 2 3 C0.625 4.5 0.625 4.5 -1 6 C-1.66 6 -2.32 6 -3 6 C-3.33 6.66 -3.66 7.32 -4 8 C-4 4.09161134 -2.49432124 2.88405893 0 0 Z " fill="#F6EDEA" transform="translate(405,400)"/>
<path d="M0 0 C0.66 0.33 1.32 0.66 2 1 C1.19185349 2.33597652 0.37836819 3.668725 -0.4375 5 C-0.88996094 5.7425 -1.34242188 6.485 -1.80859375 7.25 C-2.20175781 7.8275 -2.59492188 8.405 -3 9 C-3.33 9 -3.66 9 -4 9 C-4 7.35 -4 5.7 -4 4 C-3.34 4 -2.68 4 -2 4 C-1.34 2.68 -0.68 1.36 0 0 Z " fill="#EF2F42" transform="translate(422,375)"/>
<path d="M0 0 C-0.33 0.99 -0.66 1.98 -1 3 C-4.3 3.33 -7.6 3.66 -11 4 C-7.61125486 1.74083657 -4.15175481 0 0 0 Z " fill="#434041" transform="translate(486,338)"/>
<path d="M0 0 C0 0.66 0 1.32 0 2 C-3.3 1.67 -6.6 1.34 -10 1 C-6.1496895 -1.56687367 -4.41430237 -0.83288724 0 0 Z " fill="#F9A0A6" transform="translate(379,323)"/>
<path d="M0 0 C0.99 0 1.98 0 3 0 C2.67 1.98 2.34 3.96 2 6 C0.68 4.68 -0.64 3.36 -2 2 C-1.34 1.34 -0.68 0.68 0 0 Z " fill="#E9E9E9" transform="translate(113,305)"/>
<path d="M0 0 C4.875 4.75 4.875 4.75 6 7 C5.01 7 4.02 7 3 7 C2.67 6.34 2.34 5.68 2 5 C-0.01669827 3.86649466 -0.01669827 3.86649466 -2 3 C-1.34 2.01 -0.68 1.02 0 0 Z " fill="#F0303D" transform="translate(355,123)"/>
<path d="M0 0 C2.97 0 5.94 0 9 0 C9 0.66 9 1.32 9 2 C3.375 3.125 3.375 3.125 0 2 C0 1.34 0 0.68 0 0 Z " fill="#F12938" transform="translate(256,434)"/>
<path d="M0 0 C-1.32 0.99 -2.64 1.98 -4 3 C-4.66 2.67 -5.32 2.34 -6 2 C-6 2.66 -6 3.32 -6 4 C-7.32 3.34 -8.64 2.68 -10 2 C-8.71211992 1.46987262 -7.41953322 0.9511671 -6.125 0.4375 C-5.40570313 0.14746094 -4.68640625 -0.14257812 -3.9453125 -0.44140625 C-2 -1 -2 -1 0 0 Z " fill="#F6E9E1" transform="translate(364,432)"/>
<path d="M0 0 C3.34373475 0.55728913 6.03312999 1.35173889 9 3 C5.79937313 4.60031344 3.27728194 3.03173691 0 2 C0 1.34 0 0.68 0 0 Z " fill="#F62535" transform="translate(237,425)"/>
<path d="M0 0 C1.65 0 3.3 0 5 0 C4.67 1.65 4.34 3.3 4 5 C2 3.625 2 3.625 0 2 C0 1.34 0 0.68 0 0 Z " fill="#EB3B41" transform="translate(208,403)"/>
<path d="M0 0 C0.66 1.32 1.32 2.64 2 4 C1.01 4.495 1.01 4.495 0 5 C0 5.99 0 6.98 0 8 C-0.66 8 -1.32 8 -2 8 C-2.20086443 4.28400809 -2.1519437 3.22791555 0 0 Z " fill="#F6F0EB" transform="translate(421,379)"/>
<path d="M0 0 C0.66 0.33 1.32 0.66 2 1 C2 3.31 2 5.62 2 8 C0.02 8 -1.96 8 -4 8 C-3.01 7.67 -2.02 7.34 -1 7 C-0.67 4.69 -0.34 2.38 0 0 Z " fill="#3B2A30" transform="translate(438,344)"/>
<path d="M0 0 C1.65 1.32 3.3 2.64 5 4 C2.69 4.33 0.38 4.66 -2 5 C-2 4.01 -2 3.02 -2 2 C-1.34 2 -0.68 2 0 2 C0 1.34 0 0.68 0 0 Z " fill="#EC2734" transform="translate(347,313)"/>
<path d="M0 0 C-1.65 0.66 -3.3 1.32 -5 2 C-5.99 1.01 -6.98 0.02 -8 -1 C-4.59745511 -2.2151946 -3.06748874 -1.86240388 0 0 Z " fill="#2F2D2E" transform="translate(373,275)"/>
<path d="M0 0 C0.99 0.33 1.98 0.66 3 1 C1.515 4.465 1.515 4.465 0 8 C-2 5 -2 5 -2 3 C-1.01 3 -0.02 3 1 3 C0.67 2.01 0.34 1.02 0 0 Z " fill="#FAE3E4" transform="translate(183,241)"/>
<path d="M0 0 C0.99 0 1.98 0 3 0 C3.33 1.32 3.66 2.64 4 4 C3.01 4.33 2.02 4.66 1 5 C0.34 4.67 -0.32 4.34 -1 4 C-0.67 2.68 -0.34 1.36 0 0 Z " fill="#EB3238" transform="translate(276,64)"/>
</svg>
